<svg id="Layer_1" data-name="Layer 1" xmlns="http://www.w3.org/2000/svg" viewBox="0 0 352.23 260.13"><defs><style>.cls-1{fill:none;stroke:#fff;stroke-miterlimit:10;stroke-width:3px;}</style></defs><title>double_logo</title><path class="cls-1" d="M960.77,520.74v41.77A24.45,24.45,0,0,1,936.32,587H894.55a24.45,24.45,0,0,1-24.45-24.45V512.77a10.22,10.22,0,0,0-10.22-10.22H809.77a24.44,24.44,0,0,1-24.45-24.45V436.33a24.45,24.45,0,0,1,24.45-24.45h41.77A24.45,24.45,0,0,1,876,436.33v49.74a10.21,10.21,0,0,0,10.22,10.22h50.11A24.45,24.45,0,0,1,960.77,520.74Z" transform="translate(-783.82 -410.38)"/><path class="cls-1" d="M1134.54,586v52.37A30.65,30.65,0,0,1,1103.89,669h-52.38a30.66,30.66,0,0,1-30.66-30.66V576A12.81,12.81,0,0,0,1008,563.17H945.2a30.65,30.65,0,0,1-30.66-30.66V480.14a30.66,30.66,0,0,1,30.66-30.66h52.38a30.66,30.66,0,0,1,30.66,30.66v62.37a12.8,12.8,0,0,0,12.81,12.81h62.84A30.65,30.65,0,0,1,1134.54,586Z" transform="translate(-783.82 -410.38)"/></svg>