<svg width="62" height="62" viewBox="0 0 62 62" fill="none" xmlns="http://www.w3.org/2000/svg">
<path d="M46.4508 0H15.5C6.9873 0 0 6.9873 0 15.5492V46.5C0 55.0127 6.9873 62 15.5 62H46.4508C55.0127 62 62 55.0127 62 46.4508V15.5492C62 6.9873 55.0127 0 46.4508 0ZM39.3159 31H33.4603V50.1905H26.0794V31H22.1429V23.127H25.5873V19.781C25.5873 16.6317 27.1619 11.6619 33.8048 11.6619H39.8571V18.2064H35.5762C34.8873 18.2064 33.9524 18.6492 33.9524 20.1746V23.127H40.0048L39.3159 31Z" fill="#219EBC"/>
</svg>
