<?xml version="1.0" encoding="utf-8"?>
<!-- Generator: Adobe Illustrator 22.0.1, SVG Export Plug-In . SVG Version: 6.00 Build 0)  -->
<svg version="1.1" id="Layer_1" xmlns="http://www.w3.org/2000/svg" xmlns:xlink="http://www.w3.org/1999/xlink" x="0px" y="0px"
	 viewBox="0 0 1364 837.4" style="enable-background:new 0 0 1364 837.4;" xml:space="preserve">
<style type="text/css">
	.st0{clip-path:url(#SVGID_2_);fill:url(#SVGID_3_);}
</style>
<g>
	<g>
		<defs>
			<path id="SVGID_1_" d="M691.5,482v-8.3V482z M315.7,312.3V118.7c0-50.3,40.8-91.1,91.1-91.1h193.6c50.3,0,91.1,40.8,91.1,91.1
				v193.6c0,4.6-0.3,9.1-1,13.6c0.1,3.4,0.4,7.6,1,12.1c3.2,24.1,14.9,59.8,56.3,65.4h221.7c54,0,97.7,43.8,97.7,97.8v180.2
				c0,54-43.8,97.8-97.7,97.8H789.3c-54,0-97.8-43.8-97.8-97.8V501.1V482c-0.8-23.1-9-78.6-69.3-78.6c-2.4,0-4.9,0.1-7.5,0.3
				c-2.5,0.2-4.8,0.3-6.7,0.3c-3.2,0-5.8-0.2-7.7-0.7H406.8C356.5,403.3,315.7,362.6,315.7,312.3 M406.8,3.4
				c-63.6,0-115.4,51.7-115.4,115.3v193.6c0,63.6,51.7,115.3,115.4,115.3H598c3,0.5,6.2,0.7,9.9,0.7c2.6,0,5.4-0.1,8.5-0.3
				c1.9-0.1,3.9-0.2,5.8-0.2c22.7,0,31.4,10.6,36,18.5c7.1,12.3,8.7,27.8,9.1,36.2v18.7v180.2c0,67.3,54.7,122,122,122h180.2
				c67.3,0,122-54.7,122-122V501.1c0-67.3-54.7-122-122-122H749.4c-8.6-1.3-28.9-6.3-33.9-44.2c-0.4-3.2-0.6-5.9-0.7-7.9
				c0.6-5,0.9-9.9,0.9-14.7V118.7C715.8,55.1,664,3.4,600.4,3.4H406.8z"/>
		</defs>
		<clipPath id="SVGID_2_">
			<use xlink:href="#SVGID_1_"  style="overflow:visible;"/>
		</clipPath>
		
			<linearGradient id="SVGID_3_" gradientUnits="userSpaceOnUse" x1="-2.9323" y1="834.9893" x2="1.9172" y2="834.9893" gradientTransform="matrix(154.5574 146.4795 146.4795 -154.5574 -121539.8984 129530.5391)">
			<stop  offset="0" style="stop-color:#9DD3D9"/>
			<stop  offset="0.3" style="stop-color:#00B0CD"/>
			<stop  offset="0.4614" style="stop-color:#1F76AF"/>
			<stop  offset="0.6049" style="stop-color:#384898"/>
			<stop  offset="0.6769" style="stop-color:#41378F"/>
			<stop  offset="1" style="stop-color:#41378F"/>
		</linearGradient>
		<polygon class="st0" points="670,-396.1 1490.9,381.9 712.9,1202.8 -107.9,424.8 		"/>
	</g>
</g>
</svg>
