<svg width="62" height="62" viewBox="0 0 62 62" fill="none" xmlns="http://www.w3.org/2000/svg">
<path d="M31 23.312C29.4795 23.312 27.9931 23.7629 26.7288 24.6077C25.4645 25.4524 24.4791 26.6531 23.8972 28.0579C23.3153 29.4627 23.1631 31.0085 23.4597 32.4999C23.7564 33.9912 24.4886 35.3611 25.5638 36.4362C26.6389 37.5114 28.0088 38.2436 29.5001 38.5403C30.9915 38.8369 32.5373 38.6847 33.9421 38.1028C35.3469 37.5209 36.5476 36.5355 37.3923 35.2712C38.2371 34.0069 38.688 32.5205 38.688 31C38.688 29.9904 38.4891 28.9907 38.1028 28.0579C37.7164 27.1252 37.1501 26.2777 36.4362 25.5638C35.7223 24.8499 34.8748 24.2836 33.9421 23.8972C33.0093 23.5109 32.0096 23.312 31 23.312ZM61.783 15.717C61.7667 13.3231 61.3259 10.951 60.481 8.711C59.8588 7.07191 58.896 5.58339 57.6563 4.34367C56.4166 3.10396 54.9281 2.14122 53.289 1.519C51.049 0.674138 48.677 0.233309 46.283 0.217C42.284 -2.0626e-07 41.106 0 31 0C20.894 0 19.716 -2.0626e-07 15.717 0.217C13.3231 0.233309 10.951 0.674138 8.711 1.519C7.07191 2.14122 5.58339 3.10396 4.34367 4.34367C3.10396 5.58339 2.14122 7.07191 1.519 8.711C0.674138 10.951 0.233309 13.3231 0.217 15.717C-2.0626e-07 19.716 0 20.894 0 31C0 41.106 -2.0626e-07 42.284 0.217 46.283C0.250368 48.6854 0.6906 51.0647 1.519 53.32C2.13847 54.9516 3.1004 56.4315 4.34 57.66C5.5744 58.9072 7.06611 59.8699 8.711 60.481C10.951 61.3259 13.3231 61.7667 15.717 61.783C19.716 62 20.894 62 31 62C41.106 62 42.284 62 46.283 61.783C48.677 61.7667 51.049 61.3259 53.289 60.481C54.9339 59.8699 56.4256 58.9072 57.66 57.66C58.8996 56.4315 59.8615 54.9516 60.481 53.32C61.325 51.069 61.7658 48.6869 61.783 46.283C62 42.284 62 41.106 62 31C62 20.894 62 19.716 61.783 15.717ZM53.909 40.517C53.8095 42.43 53.4012 44.3144 52.7 46.097C52.0982 47.584 51.2035 48.9349 50.0692 50.0692C48.9349 51.2035 47.584 52.0982 46.097 52.7C44.2975 53.3621 42.4026 53.7285 40.486 53.785C38.037 53.785 37.386 53.785 31 53.785C24.614 53.785 23.963 53.785 21.514 53.785C19.5974 53.7285 17.7025 53.3621 15.903 52.7C14.3657 52.1287 12.9775 51.2174 11.842 50.034C10.7188 48.9219 9.85132 47.5784 9.3 46.097C8.63523 44.2994 8.27888 42.4023 8.246 40.486C8.246 38.037 8.246 37.386 8.246 31C8.246 24.614 8.246 23.963 8.246 21.514C8.27888 19.5977 8.63523 17.7006 9.3 15.903C9.87127 14.3657 10.7827 12.9775 11.966 11.842C13.083 10.7248 14.4251 9.85829 15.903 9.3C17.7025 8.63786 19.5974 8.27145 21.514 8.215C23.963 8.215 24.614 8.215 31 8.215C37.386 8.215 38.037 8.215 40.486 8.215C42.4026 8.27145 44.2975 8.63786 46.097 9.3C47.6343 9.87127 49.0225 10.7827 50.158 11.966C51.2812 13.0781 52.1487 14.4216 52.7 15.903C53.3621 17.7025 53.7285 19.5974 53.785 21.514C53.785 23.963 53.785 24.614 53.785 31C53.785 37.386 54.002 38.037 53.909 40.486V40.517ZM48.949 17.453C48.5799 16.4517 47.998 15.5423 47.2433 14.7877C46.4887 14.033 45.5793 13.4511 44.578 13.082C43.2031 12.6054 41.755 12.3746 40.3 12.4C37.882 12.4 37.2 12.4 31 12.4C24.8 12.4 24.118 12.4 21.7 12.4C20.2376 12.4143 18.7893 12.6872 17.422 13.206C16.436 13.5583 15.5362 14.1165 14.7826 14.8434C14.029 15.5703 13.4387 16.4493 13.051 17.422C12.6008 18.8026 12.3809 20.2479 12.4 21.7C12.4 24.118 12.4 24.8 12.4 31C12.4 37.2 12.4 37.882 12.4 40.3C12.4307 41.7607 12.7031 43.2063 13.206 44.578C13.5751 45.5793 14.157 46.4887 14.9117 47.2433C15.6663 47.998 16.5757 48.5799 17.577 48.949C18.8997 49.4354 20.2915 49.7075 21.7 49.755C24.118 49.755 24.8 49.755 31 49.755C37.2 49.755 37.882 49.755 40.3 49.755C41.7624 49.7407 43.2107 49.4678 44.578 48.949C45.5793 48.5799 46.4887 47.998 47.2433 47.2433C47.998 46.4887 48.5799 45.5793 48.949 44.578C49.4678 43.2107 49.7407 41.7624 49.755 40.3C49.755 37.882 49.755 37.2 49.755 31C49.755 24.8 49.755 24.118 49.755 21.7C49.7559 20.2362 49.4825 18.7851 48.949 17.422V17.453ZM31 42.842C29.4463 42.842 27.908 42.5355 26.473 41.94C25.038 41.3445 23.7345 40.4717 22.6374 39.3717C21.5402 38.2716 20.6709 36.966 20.0791 35.5294C19.4874 34.0928 19.1849 32.5536 19.189 31C19.189 28.6566 19.8843 26.3658 21.1869 24.4177C22.4895 22.4697 24.3408 20.9519 26.5065 20.0565C28.6721 19.1611 31.0547 18.9284 33.3527 19.3879C35.6507 19.8473 37.7606 20.9782 39.4155 22.6375C41.0704 24.2967 42.1958 26.4096 42.6492 28.7088C43.1026 31.008 42.8637 33.39 41.9627 35.5533C41.0616 37.7166 39.539 39.5639 37.5875 40.8614C35.636 42.1588 33.3434 42.8481 31 42.842ZM43.4 21.483C42.7147 21.4105 42.0805 21.0869 41.6196 20.5746C41.1587 20.0623 40.9037 19.3976 40.9037 18.7085C40.9037 18.0194 41.1587 17.3547 41.6196 16.8424C42.0805 16.3301 42.7147 16.0065 43.4 15.934C44.0853 16.0065 44.7195 16.3301 45.1804 16.8424C45.6413 17.3547 45.8963 18.0194 45.8963 18.7085C45.8963 19.3976 45.6413 20.0623 45.1804 20.5746C44.7195 21.0869 44.0853 21.4105 43.4 21.483Z" fill="#219EBC"/>
</svg>
