<svg width="380" height="380" viewBox="0 0 380 380" fill="none" xmlns="http://www.w3.org/2000/svg">
  <g clip-path="url(#clip0_513_691)">
  <path d="M322.999 285.003C322.999 288.762 321.885 292.436 319.796 295.562C317.708 298.687 314.74 301.123 311.268 302.561C307.795 304 303.974 304.376 300.287 303.643C296.601 302.909 293.214 301.099 290.557 298.442C287.899 295.784 286.089 292.397 285.355 288.711C284.622 285.024 284.998 281.203 286.437 277.731C287.875 274.258 290.311 271.29 293.436 269.202C296.562 267.113 300.236 265.999 303.995 265.999C309.035 265.999 313.869 268.001 317.433 271.565C320.997 275.129 322.999 279.963 322.999 285.003Z" fill="#FFB703"/>
  <path d="M291.338 303.995H316.677C320.037 303.995 323.26 305.33 325.636 307.706C328.012 310.082 329.347 313.304 329.347 316.665V342.004H278.668V316.665C278.668 313.304 280.003 310.082 282.379 307.706C284.755 305.33 287.977 303.995 291.338 303.995Z" fill="#FFB703"/>
  <path d="M177.338 265.999C157.023 265.98 137.127 260.215 119.95 249.368C102.773 238.521 89.0151 223.036 80.2659 204.702C71.5166 186.368 68.133 165.932 70.506 145.756C72.879 125.58 80.9117 106.487 93.6761 90.6829C76.6584 93.9401 60.6782 101.256 47.0927 112.01C33.5072 122.764 22.7177 136.638 15.6407 152.453C8.56359 168.269 5.40799 185.558 6.44186 202.854C7.47573 220.15 12.6685 236.941 21.5793 251.8C30.49 266.66 42.8553 279.15 57.6252 288.209C72.395 297.267 89.133 302.628 106.418 303.835C123.702 305.041 141.023 302.059 156.908 295.14C172.793 288.222 186.774 277.572 197.663 264.094C190.964 265.372 184.158 266.01 177.338 265.999Z" fill="#8ECAE6"/>
  <path d="M145.662 151.997C145.662 158.259 143.805 164.381 140.327 169.588C136.848 174.794 131.903 178.852 126.117 181.249C120.332 183.645 113.966 184.272 107.824 183.05C101.683 181.829 96.0411 178.813 91.6132 174.385C87.1853 169.957 84.1699 164.316 82.9482 158.174C81.7266 152.033 82.3536 145.667 84.7499 139.881C87.1463 134.096 91.2044 129.151 96.4111 125.672C101.618 122.193 107.739 120.336 114.001 120.336C122.397 120.34 130.448 123.676 136.385 129.613C142.322 135.55 145.659 143.601 145.662 151.997Z" fill="white"/>
  <path d="M94.9964 183.672H132.992C139.713 183.672 146.158 186.341 150.91 191.093C155.662 195.845 158.332 202.291 158.332 209.011V259.677H69.6699V208.998C69.6734 202.282 72.3428 195.842 77.0917 191.093C81.8405 186.344 88.2804 183.675 94.9964 183.672Z" fill="white"/>
  <path d="M126.671 183.672H101.332L107.667 202.676L101.332 240.672L114.002 259.664L126.671 240.659L120.337 202.663L126.671 183.672Z" fill="#219EBC"/>
  <path d="M322.999 57.0006C322.999 60.7594 321.885 64.4337 319.796 67.559C317.708 70.6843 314.74 73.1201 311.268 74.5585C307.795 75.9969 303.974 76.3733 300.287 75.64C296.601 74.9067 293.214 73.0967 290.557 70.4389C287.899 67.781 286.089 64.3947 285.355 60.7082C284.622 57.0217 284.998 53.2005 286.437 49.7279C287.875 46.2553 290.311 43.2872 293.436 41.1989C296.562 39.1107 300.236 37.9961 303.995 37.9961C309.035 37.9961 313.869 39.9984 317.433 43.5624C320.997 47.1264 322.999 51.9603 322.999 57.0006Z" fill="#FFB703"/>
  <path d="M291.338 76.0051H316.677C320.037 76.0051 323.26 77.34 325.636 79.716C328.012 82.092 329.347 85.3146 329.347 88.6748V114.001H278.668V88.6619C278.671 85.3039 280.008 82.0846 282.383 79.7114C284.759 77.3382 287.98 76.0051 291.338 76.0051Z" fill="#FFB703"/>
  <path d="M278.669 120.336H329.335C331.015 120.336 332.626 119.669 333.814 118.481C335.002 117.293 335.669 115.682 335.669 114.001V88.662C335.665 85.0629 334.639 81.5389 332.71 78.5002C330.782 75.4614 328.03 73.0329 324.775 71.497C327.423 67.7001 328.98 63.2499 329.276 58.6301C329.573 54.0104 328.597 49.3977 326.456 45.2935C324.314 41.1892 321.089 37.7504 317.13 35.3507C313.172 32.9509 308.631 31.6821 304.002 31.6821C299.372 31.6821 294.832 32.9509 290.873 35.3507C286.914 37.7504 283.689 41.1892 281.548 45.2935C279.406 49.3977 278.431 54.0104 278.727 58.6301C279.024 63.2499 280.581 67.7001 283.229 71.497C279.974 73.0329 277.222 75.4614 275.293 78.5002C273.364 81.5389 272.338 85.0629 272.334 88.662V114.001C272.334 115.682 273.001 117.293 274.189 118.481C275.377 119.669 276.989 120.336 278.669 120.336ZM323 107.667H285.004V88.662C285.004 86.9819 285.671 85.3706 286.859 84.1826C288.047 82.9946 289.658 82.3272 291.339 82.3272H316.678C318.358 82.3272 319.969 82.9946 321.157 84.1826C322.345 85.3706 323.013 86.9819 323.013 88.662L323 107.667ZM303.995 44.3311C306.502 44.3285 308.952 45.0694 311.038 46.46C313.123 47.8506 314.749 49.8284 315.71 52.1433C316.671 54.4581 316.923 57.006 316.436 59.4645C315.949 61.9231 314.743 64.1818 312.972 65.955C311.2 67.7282 308.943 68.9361 306.485 69.426C304.027 69.916 301.479 69.6658 299.163 68.7072C296.847 67.7487 294.867 66.1248 293.475 64.041C292.082 61.9572 291.339 59.5071 291.339 57.0007C291.339 53.6428 292.672 50.4222 295.045 48.0465C297.418 45.6708 300.637 44.3345 303.995 44.3311Z" fill="#023047"/>
  <path d="M303.994 151.997C319.028 152 333.724 147.544 346.225 139.194C358.726 130.843 368.47 118.973 374.224 105.084C379.979 91.1955 381.485 75.9123 378.553 61.1676C375.62 46.4228 368.381 32.8788 357.751 22.2485C347.121 11.6182 333.577 4.37915 318.832 1.44688C304.087 -1.48538 288.804 0.0208651 274.915 5.77512C261.027 11.5294 249.156 21.2732 240.806 33.7741C232.455 46.2751 227.999 60.9717 228.002 76.0052C228.005 96.1586 236.013 115.485 250.263 129.736C264.514 143.987 283.841 151.994 303.994 151.997ZM303.994 12.6697C316.521 12.6697 328.766 16.3843 339.181 23.3437C349.597 30.3031 357.715 40.1947 362.509 51.7678C367.302 63.3408 368.557 76.0755 366.113 88.3614C363.669 100.647 357.637 111.933 348.779 120.79C339.921 129.648 328.636 135.68 316.35 138.124C304.064 140.568 291.33 139.313 279.757 134.52C268.184 129.726 258.292 121.608 251.333 111.193C244.373 100.777 240.659 88.5318 240.659 76.0052C240.659 59.2076 247.332 43.098 259.209 31.2203C271.087 19.3426 287.197 12.6697 303.994 12.6697Z" fill="#023047"/>
  <path d="M324.775 299.5C327.423 295.703 328.98 291.252 329.276 286.633C329.573 282.013 328.597 277.4 326.456 273.296C324.314 269.192 321.089 265.753 317.13 263.353C313.172 260.953 308.631 259.685 304.002 259.685C299.372 259.685 294.832 260.953 290.873 263.353C286.914 265.753 283.689 269.192 281.548 273.296C279.406 277.4 278.431 282.013 278.727 286.633C279.024 291.252 280.581 295.703 283.229 299.5C279.974 301.035 277.222 303.464 275.293 306.503C273.364 309.541 272.338 313.065 272.334 316.664V342.004C272.334 343.684 273.001 345.295 274.189 346.483C275.377 347.671 276.989 348.339 278.669 348.339H329.335C331.015 348.339 332.626 347.671 333.814 346.483C335.002 345.295 335.669 343.684 335.669 342.004V316.664C335.665 313.065 334.639 309.541 332.71 306.503C330.782 303.464 328.03 301.035 324.775 299.5ZM304.047 272.295C306.553 272.295 309.002 273.038 311.086 274.43C313.17 275.822 314.793 277.801 315.752 280.116C316.711 282.431 316.962 284.978 316.473 287.436C315.984 289.894 314.778 292.151 313.006 293.923C311.234 295.695 308.976 296.902 306.519 297.391C304.061 297.879 301.514 297.629 299.199 296.67C296.884 295.711 294.905 294.087 293.513 292.003C292.12 289.92 291.377 287.47 291.377 284.964C291.388 281.62 292.72 278.415 295.084 276.049C297.447 273.683 300.651 272.347 303.995 272.334L304.047 272.295ZM323.052 335.63H285.004V316.664C285.004 314.984 285.671 313.373 286.859 312.185C288.047 310.997 289.658 310.33 291.339 310.33H316.678C318.358 310.33 319.969 310.997 321.157 312.185C322.345 313.373 323.013 314.984 323.013 316.664L323.052 335.63Z" fill="#023047"/>
  <path d="M303.995 228.003C288.963 228.003 274.268 232.46 261.769 240.812C249.27 249.163 239.528 261.034 233.776 274.922C228.023 288.81 226.518 304.092 229.451 318.836C232.383 333.579 239.622 347.122 250.252 357.752C260.881 368.381 274.424 375.62 289.168 378.553C303.911 381.485 319.193 379.98 333.081 374.228C346.969 368.475 358.84 358.733 367.191 346.234C375.543 333.735 380.001 319.04 380.001 304.008C380.001 283.85 371.993 264.518 357.739 250.264C343.486 236.01 324.153 228.003 303.995 228.003ZM303.995 367.33C291.469 367.33 279.224 363.616 268.808 356.656C258.393 349.697 250.275 339.805 245.481 328.232C240.687 316.659 239.433 303.925 241.877 291.639C244.321 279.353 250.353 268.068 259.211 259.21C268.068 250.352 279.353 244.32 291.639 241.876C303.925 239.433 316.66 240.687 328.233 245.481C339.806 250.274 349.698 258.392 356.657 268.808C363.616 279.223 367.331 291.468 367.331 303.995C367.331 320.793 360.658 336.902 348.78 348.78C336.903 360.658 320.793 367.33 303.995 367.33Z" fill="#023047"/>
  <path d="M69.6707 265.999H158.333C160.013 265.999 161.624 265.331 162.812 264.143C164 262.955 164.667 261.344 164.667 259.664V208.998C164.677 202.047 162.399 195.286 158.185 189.759C153.97 184.231 148.054 180.244 141.349 178.412C146.541 173.051 150.038 166.28 151.406 158.943C152.774 151.606 151.951 144.03 149.039 137.158C146.128 130.286 141.258 124.424 135.036 120.303C128.814 116.182 121.516 113.984 114.053 113.984C106.591 113.984 99.2928 116.182 93.071 120.303C86.8492 124.424 81.9788 130.286 79.0676 137.158C76.1563 144.03 75.3332 151.606 76.7008 158.943C78.0684 166.28 81.5663 173.051 86.7579 178.412C80.0527 180.244 74.1365 184.231 69.9222 189.759C65.708 195.286 63.4299 202.047 63.4395 208.998V259.664C63.4393 261.326 64.0924 262.922 65.2581 264.107C66.4238 265.292 68.0086 265.972 69.6707 265.999ZM114.002 200.642L110.115 190.007H117.888L114.338 200.642C114.118 201.645 114.118 202.684 114.338 203.687L120.362 239.221L114.028 248.29L108.004 239.221L114.002 203.674C114.22 202.675 114.22 201.641 114.002 200.642ZM151.998 208.998V253.329H125.842L132.177 244.144C133.067 242.826 133.428 241.221 133.188 239.649L126.853 203.169L131.231 189.994H133.006C138.044 189.997 142.875 192.001 146.436 195.565C149.997 199.128 151.998 203.96 151.998 208.998ZM114.002 126.671C119.013 126.671 123.912 128.157 128.079 130.942C132.246 133.726 135.494 137.683 137.412 142.314C139.33 146.944 139.832 152.039 138.854 156.954C137.876 161.869 135.463 166.384 131.919 169.928C128.376 173.472 123.86 175.885 118.945 176.863C114.03 177.841 108.935 177.339 104.305 175.421C99.6745 173.503 95.7171 170.255 92.9327 166.088C90.1484 161.921 88.6623 157.022 88.6623 152.01C88.6623 145.29 91.3319 138.845 96.084 134.093C100.836 129.341 107.281 126.671 114.002 126.671ZM76.0055 208.998C76.0055 203.958 78.0078 199.124 81.5718 195.56C85.1359 191.996 89.9697 189.994 95.0101 189.994H96.7719L101.332 203.169L94.9971 239.662C94.7578 241.234 95.1185 242.839 96.0076 244.157L102.342 253.329H76.0055V208.998Z" fill="#023047"/>
  <path d="M114.001 310.33C136.549 310.33 158.59 303.644 177.337 291.117C196.084 278.591 210.696 260.786 219.325 239.955C227.953 219.124 230.211 196.202 225.812 174.088C221.413 151.974 210.556 131.661 194.612 115.717C178.669 99.774 158.356 88.9165 136.242 84.5177C114.128 80.1189 91.2059 82.3765 70.3749 91.005C49.5439 99.6335 31.7393 114.245 19.2127 132.993C6.68606 151.74 0 173.781 0 196.329C0 226.564 12.0108 255.56 33.3902 276.94C54.7696 298.319 83.7663 310.33 114.001 310.33ZM114.001 94.9969C134.043 94.9969 153.634 100.94 170.298 112.074C186.962 123.209 199.95 139.035 207.619 157.551C215.289 176.067 217.296 196.441 213.386 216.097C209.476 235.754 199.825 253.809 185.654 267.981C171.482 282.152 153.427 291.803 133.77 295.713C114.114 299.623 93.7393 297.616 75.2234 289.947C56.7074 282.277 40.8816 269.289 29.7471 252.625C18.6127 235.961 12.6697 216.37 12.6697 196.329C12.6697 169.454 23.3457 143.68 42.349 124.676C61.3524 105.673 87.1265 94.9969 114.001 94.9969Z" fill="#023047"/>
  <path d="M297.66 171.002V208.998C297.66 210.678 298.328 212.29 299.516 213.478C300.704 214.666 302.315 215.333 303.995 215.333C305.675 215.333 307.286 214.666 308.474 213.478C309.662 212.29 310.33 210.678 310.33 208.998V171.002C310.33 169.322 309.662 167.711 308.474 166.523C307.286 165.335 305.675 164.667 303.995 164.667C302.315 164.667 300.704 165.335 299.516 166.523C298.328 167.711 297.66 169.322 297.66 171.002Z" fill="#023047"/>
  <path d="M120.337 69.6705C122.017 69.6705 123.628 69.003 124.816 67.815C126.004 66.627 126.672 65.0157 126.672 63.3356V50.6659C126.672 45.6256 128.674 40.7917 132.238 37.2277C135.802 33.6636 140.636 31.6614 145.676 31.6614H215.346C217.027 31.6614 218.638 30.994 219.826 29.806C221.014 28.6179 221.681 27.0066 221.681 25.3265C221.681 23.6464 221.014 22.0351 219.826 20.8471C218.638 19.6591 217.027 18.9917 215.346 18.9917H145.663C137.265 18.9951 129.212 22.3337 123.275 28.2734C117.337 34.2131 114.002 42.2676 114.002 50.6659V63.3356C114.002 65.0157 114.669 66.627 115.857 67.815C117.045 69.003 118.657 69.6705 120.337 69.6705Z" fill="#023047"/>
  </g>
  <defs>
  <clipPath id="clip0_513_691">
  <rect width="380" height="380" fill="white"/>
  </clipPath>
  </defs>
  </svg>
  