<svg xmlns="http://www.w3.org/2000/svg" viewBox="0 0 293.33 293.33">
  <defs>
    <style>
      .prefix__cls-1 {
        fill: #cdfffc
      }

      .prefix__cls-3 {
        fill: #fff
      }

      .prefix__cls-5 {
        fill: #0b2f46
      }
    </style>
  </defs>
  <g id="prefix__Camada_2" data-name="Camada 2">
    <g id="prefix__Layer_1" data-name="Layer 1">
      <path class="prefix__cls-1" d="M249.33 220a14.67 14.67 0 11-14.67-14.67A14.67 14.67 0 01249.33 220z" />
      <path class="prefix__cls-1"
        d="M224.89 234.66h19.56a9.78 9.78 0 019.78 9.78V264h-39.12v-19.56a9.78 9.78 0 019.78-9.78z" />
      <path d="M136.89 205.33A83.11 83.11 0 0172.31 70a83.11 83.11 0 1080.27 133.86 83 83 0 01-15.69 1.47z"
        fill="#ff8451" />
      <path class="prefix__cls-3" d="M112.44 117.33A24.44 24.44 0 1188 92.89a24.45 24.45 0 0124.44 24.44z" />
      <path class="prefix__cls-3"
        d="M73.33 141.78h29.33a19.56 19.56 0 0119.56 19.56v39.11H53.78v-39.12a19.56 19.56 0 0119.55-19.55z" />
      <path d="M97.78 141.78H78.22l4.89 14.67-4.89 29.33L88 200.44l9.78-14.67-4.89-29.33z" fill="#fc08bc" />
      <path class="prefix__cls-1" d="M249.33 44a14.67 14.67 0 11-14.67-14.67A14.67 14.67 0 01249.33 44z" />
      <path class="prefix__cls-1"
        d="M224.89 58.67h19.56a9.78 9.78 0 019.78 9.78V88h-39.12V68.44a9.78 9.78 0 019.78-9.77z" />
      <path class="prefix__cls-5"
        d="M215.11 92.89h39.11a4.89 4.89 0 004.89-4.89V68.44a14.67 14.67 0 00-8.41-13.25 19.55 19.55 0 10-32.07 0 14.67 14.67 0 00-8.41 13.25V88a4.89 4.89 0 004.89 4.89zm34.22-9.78H220V68.44a4.89 4.89 0 014.89-4.89h19.56a4.89 4.89 0 014.89 4.89zm-14.67-48.89a9.78 9.78 0 11-9.77 9.78 9.78 9.78 0 019.77-9.78z" />
      <path class="prefix__cls-5"
        d="M234.66 117.33A58.67 58.67 0 10176 58.67a58.67 58.67 0 0058.66 58.66zm0-107.55a48.89 48.89 0 11-48.89 48.89 48.89 48.89 0 0148.89-48.89zM250.7 231.19a19.55 19.55 0 10-32.07 0 14.67 14.67 0 00-8.41 13.25V264a4.89 4.89 0 004.89 4.89h39.11a4.89 4.89 0 004.89-4.89v-19.56a14.67 14.67 0 00-8.41-13.25zm-16-21a9.78 9.78 0 11-9.78 9.78 9.78 9.78 0 019.74-9.75zm14.67 48.89H220v-14.64a4.89 4.89 0 014.89-4.89h19.56a4.89 4.89 0 014.89 4.89z" />
      <path class="prefix__cls-5"
        d="M234.66 176a58.67 58.67 0 1058.67 58.67A58.67 58.67 0 00234.66 176zm0 107.55a48.89 48.89 0 1148.89-48.89 48.89 48.89 0 01-48.89 48.89zM53.78 205.33h68.44a4.89 4.89 0 004.89-4.89v-39.11a24.44 24.44 0 00-18-23.61 29.33 29.33 0 10-42.14 0 24.44 24.44 0 00-18 23.61v39.11a4.89 4.89 0 004.81 4.89zM88 154.88l-3-8.21h6l-2.74 8.21a5.48 5.48 0 000 2.35l4.65 27.43-4.89 7-4.65-7L88 157.22a5.48 5.48 0 000-2.34zm29.33 6.45v34.22H97.14l4.89-7.09a4.88 4.88 0 00.78-3.47l-4.89-28.16 3.38-10.17h1.37a14.67 14.67 0 0114.66 14.67zM88 97.78a19.56 19.56 0 11-19.56 19.56A19.56 19.56 0 0188 97.78zm-29.33 63.55a14.67 14.67 0 0114.67-14.67h1.36l3.52 10.17L73.33 185a4.89 4.89 0 00.78 3.47l4.89 7.08H58.67z" />
      <path class="prefix__cls-5"
        d="M88 239.55a88 88 0 10-88-88 88 88 0 0088 88zm0-166.22a78.22 78.22 0 11-78.22 78.22A78.22 78.22 0 0188 73.33zM229.77 132v29.33a4.89 4.89 0 009.78 0V132a4.89 4.89 0 00-9.78 0z" />
      <path class="prefix__cls-5"
        d="M92.89 53.78a4.89 4.89 0 004.89-4.89v-9.78a14.67 14.67 0 0114.67-14.67h53.78a4.89 4.89 0 000-9.78h-53.79A24.45 24.45 0 0088 39.11v9.78a4.89 4.89 0 004.89 4.89z" />
    </g>
  </g>
</svg>