<svg width="62" height="62" viewBox="0 0 62 62" fill="none" xmlns="http://www.w3.org/2000/svg">
<path d="M46.414 0H15.5369C6.98176 0 0 6.9873 0 15.5492V46.5C0 55.0127 6.98176 62 15.5369 62H46.4631C55.0182 62 62 55.0127 62 46.4508V15.5492C61.9508 6.9873 54.9691 0 46.414 0ZM20.6503 50.1905H11.8002V24.6032H20.6503V50.1905ZM16.1761 20.6667C13.6685 20.6667 11.6527 18.6492 11.6527 16.1397C11.6527 13.6302 13.6685 11.6127 16.1761 11.6127C18.6836 11.6127 20.6994 13.6302 20.6994 16.1397C20.6503 18.6492 18.6344 20.6667 16.1761 20.6667ZM50.1998 50.1905H50.1507H42.7756V37.7905C42.7756 34.7889 42.3822 30.9508 38.3013 30.9508C34.1221 30.9508 33.4338 34.1984 33.4338 37.5936V50.1905H26.0587V24.6032H32.9421V28.0476H33.1388C34.2205 26.0794 36.728 24.554 40.6614 24.554C48.774 24.554 50.1998 29.2286 50.1998 36.1667V50.1905Z" fill="#219EBC"/>
</svg>
