<svg width="62" height="62" viewBox="0 0 62 62" fill="none" xmlns="http://www.w3.org/2000/svg">
<rect width="62" height="62" rx="16" fill="#219EBC"/>
<path d="M28.8043 51.2131C16.3177 35.1684 14 33.5217 14 27.625C14 19.5478 21.3873 13 30.5 13C39.6127 13 47 19.5478 47 27.625C47 33.5217 44.6823 35.1684 32.1957 51.2131C31.3763 52.2623 29.6236 52.2622 28.8043 51.2131ZM30.5 33.7187C34.297 33.7187 37.375 30.9905 37.375 27.625C37.375 24.2595 34.297 21.5312 30.5 21.5312C26.703 21.5312 23.625 24.2595 23.625 27.625C23.625 30.9905 26.703 33.7187 30.5 33.7187Z" fill="#023047"/>
</svg>
