<svg width="147" height="56" viewBox="0 0 147 56" fill="none" xmlns="http://www.w3.org/2000/svg">
<path d="M35.6743 0V8.4566C35.6719 9.1485 35.4273 9.81128 34.9938 10.3005C34.5604 10.7898 33.9731 11.0659 33.3601 11.0686H7.40068C8.04462 11.0693 8.66201 11.3583 9.11735 11.8722C9.57269 12.3862 9.82876 13.083 9.82936 13.8099V19.6545C9.82936 20.2234 9.94392 22.1113 11.6394 22.1113H12.2122C12.2351 22.1113 12.2581 22.1371 12.281 22.1371C12.4098 22.1149 12.5402 22.1062 12.6705 22.1113H16.8176C17.5711 22.1113 18.2937 22.4491 18.8265 23.0505C19.3593 23.6519 19.6587 24.4676 19.6587 25.3181V29.9989C19.6587 30.8494 19.3593 31.6651 18.8265 32.2665C18.2937 32.8679 17.5711 33.2057 16.8176 33.2057H12.6705C11.917 33.2057 11.1943 32.8679 10.6615 32.2665C10.1287 31.6651 9.82936 30.8494 9.82936 29.9989V24.1026C9.76063 23.4043 9.48568 22.344 8.40881 22.1371C8.22624 22.1145 8.04252 22.1059 7.85892 22.1113C7.79018 22.1113 7.69853 22.1371 7.65271 22.1113H7.6298C7.5472 22.1327 7.46243 22.1414 7.37777 22.1371H2.42874C2.10812 22.1361 1.79084 22.0637 1.49509 21.9239C1.19933 21.7842 0.930938 21.5799 0.705293 21.3228C0.479648 21.0657 0.301197 20.7609 0.180175 20.4258C0.0591522 20.0907 -0.0020597 19.7319 5.28748e-05 19.37V2.58611C5.28748e-05 1.90023 0.241448 1.24245 0.671134 0.757461C1.10082 0.272471 1.6836 0 2.29127 0H35.6743Z" fill="#EE6D19"/>
<path d="M61.941 55.7414H60.6485V53.8392C60.6473 54.088 60.6799 54.3346 60.7443 54.565C60.8087 54.7953 60.9037 55.0049 61.0238 55.1816C61.1439 55.3583 61.2867 55.4988 61.4441 55.5948C61.6015 55.6909 61.7704 55.7407 61.941 55.7414Z" fill="#EE6D19"/>
<path d="M146.554 8.51428V11.0685H143.661C144.039 11.0702 144.414 11.0055 144.764 10.878C145.114 10.7506 145.432 10.5629 145.701 10.3257C145.969 10.0885 146.183 9.80648 146.329 9.49568C146.475 9.18487 146.552 8.85139 146.554 8.51428Z" fill="white"/>
<path d="M35.6743 41.0822C35.6743 41.2116 35.6513 41.3669 35.6513 41.4963H35.6743V47.0349H35.6284C35.655 47.1972 35.6703 47.3616 35.6743 47.5267V52.0818C35.6737 52.9464 35.3691 53.7755 34.8275 54.3869C34.2859 54.9983 33.5515 55.3421 32.7855 55.3428H0V47.5267C0.000607189 46.662 0.305157 45.8329 0.846778 45.2215C1.3884 44.6101 2.12282 44.2663 2.88879 44.2656H25.8616V25.3205C25.8613 24.9023 25.934 24.4882 26.0756 24.1019C26.2172 23.7155 26.4249 23.3644 26.6868 23.0687C26.9488 22.7731 27.2598 22.5386 27.602 22.3787C27.9443 22.2189 28.3111 22.1367 28.6816 22.1371H32.8543C33.2247 22.1367 33.5915 22.2189 33.9338 22.3787C34.2761 22.5386 34.5871 22.7731 34.849 23.0687C35.1109 23.3644 35.3186 23.7155 35.4602 24.1019C35.6018 24.4882 35.6746 24.9023 35.6743 25.3205V41.0822Z" fill="#EE6D19"/>
<path d="M146.553 2.58732V8.46055C146.551 9.15277 146.299 9.81587 145.854 10.3053C145.408 10.7948 144.804 11.071 144.174 11.0737H117.478C118.143 11.073 118.781 11.3609 119.253 11.8747C119.726 12.3884 119.994 13.0864 119.999 13.8163V52.5744C119.999 53.3084 119.733 54.0122 119.26 54.5312C118.788 55.0503 118.147 55.3422 117.478 55.3429H109.915V2.58732C109.915 1.90112 110.163 1.24303 110.605 0.757815C111.047 0.272598 111.646 0 112.271 0H144.197C144.822 0 145.422 0.272598 145.863 0.757815C146.305 1.24303 146.553 1.90112 146.553 2.58732Z" fill="#EE6D19"/>
<path d="M104.13 13.7969V52.5731C104.129 53.3075 103.866 54.0116 103.398 54.5309C102.93 55.0501 102.296 55.3422 101.634 55.3429H96.6197C96.2934 55.3418 95.9704 55.2693 95.6693 55.1295C95.3683 54.9896 95.095 54.7851 94.8653 54.5278C94.6356 54.2705 94.454 53.9653 94.3308 53.6299C94.2076 53.2945 94.1453 52.9353 94.1474 52.5731V13.0462C94.0774 12.3473 93.7976 11.2601 92.7013 11.053H91.955C91.7451 11.053 91.6284 11.0013 91.6284 10.9236V11.053H75.3018C75.9599 11.0523 76.5915 11.3404 77.059 11.8544C77.5264 12.3683 77.7919 13.0666 77.7974 13.7969V52.5731C77.7968 53.3075 77.5337 54.0116 77.0658 54.5309C76.5979 55.0501 75.9635 55.3422 75.3018 55.3429H41.459V48.6127C41.4583 47.7519 41.7646 46.9258 42.3108 46.3148C42.857 45.7037 43.5989 45.3573 44.3745 45.3511H49.8322C51.2083 45.1182 51.3016 43.4874 51.3016 42.9438V32.3049C51.2978 32.2349 51.3057 32.1647 51.3249 32.0978H45.4707C45.0861 32.0968 44.7055 32.0116 44.3507 31.847C43.9958 31.6824 43.6738 31.4417 43.4029 31.1387C43.1321 30.8357 42.9178 30.4764 42.7723 30.0813C42.6268 29.6862 42.553 29.2631 42.5552 28.8363V22.572H57.1326C57.9118 22.5727 58.6589 22.9166 59.2099 23.5281C59.7609 24.1396 60.0707 24.9688 60.0714 25.8336V28.8363C60.0714 28.9657 60.048 29.121 60.048 29.2504V45.3252H67.8615V2.58853C67.8615 1.90201 68.1072 1.24361 68.5447 0.75817C68.9821 0.272726 69.5753 0 70.1939 0H94.3107C94.9293 0 95.5225 0.272726 95.9599 0.75817C96.3973 1.24361 96.6431 1.90201 96.6431 2.58853V8.59394C96.6431 9.16341 96.783 11.0013 98.6489 11.0272C98.7064 11.0287 98.7626 11.0465 98.8122 11.0789H101.634C101.96 11.0735 102.282 11.1396 102.584 11.2736C102.886 11.4076 103.161 11.6068 103.394 11.8596C103.626 12.1124 103.81 12.4138 103.937 12.7463C104.063 13.0789 104.129 13.436 104.13 13.7969Z" fill="#EE6D19"/>
<path d="M50.1367 11.0428V3.19931C50.1367 2.3508 50.4303 1.53704 50.953 0.937053C51.4756 0.337067 52.1845 0 52.9236 0H56.9915C57.7307 0 58.4395 0.337067 58.9622 0.937053C59.4848 1.53704 59.7784 2.3508 59.7784 3.19931V7.86927C59.7784 8.71777 59.4848 9.53152 58.9622 10.1315C58.4395 10.7315 57.7307 11.0686 56.9915 11.0686H50.1367V11.0428Z" fill="#EE6D19"/>
<path d="M136.912 25.3186V29.9991C136.912 30.8496 136.589 31.6651 136.014 32.2665C135.439 32.8678 134.659 33.2057 133.846 33.2057H129.372C128.559 33.2057 127.779 32.8678 127.204 32.2665C126.629 31.6651 126.306 30.8496 126.306 29.9991V22.138H133.822C134.226 22.1279 134.628 22.2029 135.004 22.3586C135.38 22.5142 135.722 22.7473 136.011 23.0439C136.299 23.3406 136.527 23.6948 136.682 24.0856C136.837 24.4764 136.915 24.8957 136.912 25.3186Z" fill="#EE6D19"/>
</svg>
