<svg id="Camada_1" data-name="Camada 1" 
    xmlns="http://www.w3.org/2000/svg" viewBox="0 0 630 407.03">
    <defs>
        <style>.cls-1,.cls-2{fill:#fff;}.cls-2{font-size:48px;font-family:Roboto-Medium, Roboto;}</style>
    </defs>
    <title>logo_sinf_comp</title>
    <path class="cls-1" d="M177.4,383.8c-.6,0-1.1.1-1.7.1a.37.37,0,0,0-.3-.1Z" transform="translate(-122.1 -298.2)"/>
    <path class="cls-1" d="M158.9,383.8h-4.4a4.1,4.1,0,0,0,1.1-.1h.1c.2.1.5,0,.9,0A17,17,0,0,1,158.9,383.8Z" transform="translate(-122.1 -298.2)"/>
    <path class="cls-1" d="M277.8,298.3V331a10.14,10.14,0,0,1-10.1,10.1H154.4A10.61,10.61,0,0,1,165,351.7v22.6c0,2.2.5,9.5,7.9,9.5h2.5c.1,0,.2.1.3.1a9.15,9.15,0,0,1,1.7-.1h18.1a12.4,12.4,0,0,1,12.4,12.4v18.1a12.4,12.4,0,0,1-12.4,12.4H177.4A12.4,12.4,0,0,1,165,414.3V391.5c-.3-2.7-1.5-6.8-6.2-7.6a17.72,17.72,0,0,0-2.4-.1c-.3,0-.7.1-.9,0h-.1a4.1,4.1,0,0,1-1.1.1H132.7a10.63,10.63,0,0,1-10.6-10.7V308.3a10,10,0,0,1,10-10Z" transform="translate(-122.1 -298.2)"/>
    <path class="cls-1" d="M517.2,341h-1.4v-.5C515.8,340.8,516.2,341,517.2,341Z" transform="translate(-122.1 -298.2)"/>
    <path class="cls-1" d="M517.2,341h-1.4v-.5C515.8,340.8,516.2,341,517.2,341Z" transform="translate(-122.1 -298.2)"/>
    <path class="cls-1" d="M537.1,512.1H526.5V501.4A10.63,10.63,0,0,0,537.1,512.1Z" transform="translate(-122.1 -298.2)"/>
    <path class="cls-1" d="M752.1,331v10H742A10.05,10.05,0,0,0,752.1,331Z" transform="translate(-122.1 -298.2)"/>
    <path class="cls-1" d="M175.4,383.8H173c.3,0,.5-.1.8-.1A6.22,6.22,0,0,1,175.4,383.8Z" transform="translate(-122.1 -298.2)"/>
    <path class="cls-1" d="M277.8,457c0,.5-.1,1.1-.1,1.6h.1V480h-.2a12.25,12.25,0,0,1,.2,1.9v17.6a12.61,12.61,0,0,1-12.6,12.6h-143V481.9a12.61,12.61,0,0,1,12.6-12.6H235V396.1a12.29,12.29,0,0,1,12.3-12.3h18.2a12.29,12.29,0,0,1,12.3,12.3Z" transform="translate(-122.1 -298.2)"/>
    <path class="cls-1" d="M752.1,308.3V331A10.14,10.14,0,0,1,742,341.1H628.7a10.69,10.69,0,0,1,10.7,10.6V501.5a10.71,10.71,0,0,1-10.7,10.7H596.6V308.3a10,10,0,0,1,10-10H742.1A10,10,0,0,1,752.1,308.3Z" transform="translate(-122.1 -298.2)"/>
    <path class="cls-1" d="M569.3,351.6V501.4a10.71,10.71,0,0,1-10.7,10.7H537.1a10.63,10.63,0,0,1-10.6-10.7V348.7c-.3-2.7-1.5-6.9-6.2-7.7h-3.2c-.9,0-1.4-.2-1.4-.5v.5h-70a10.69,10.69,0,0,1,10.7,10.6V501.4a10.71,10.71,0,0,1-10.7,10.7H300.6v-26a12.59,12.59,0,0,1,12.5-12.6h23.4c5.9-.9,6.3-7.2,6.3-9.3V423.1a2.2,2.2,0,0,1,.1-.8H317.8a12.53,12.53,0,0,1-12.5-12.6V385.5h62.5a12.61,12.61,0,0,1,12.6,12.6v11.6c0,.5-.1,1.1-.1,1.6v62.1h33.5V308.3a10,10,0,0,1,10-10H527.2a10,10,0,0,1,10,10v23.2c0,2.2.6,9.3,8.6,9.4a1.45,1.45,0,0,1,.7.2h12.1A10.54,10.54,0,0,1,569.3,351.6Z" transform="translate(-122.1 -298.2)"/>
    <path class="cls-1" d="M337.4,341V310.6a12.4,12.4,0,0,1,12.4-12.4h18.1a12.4,12.4,0,0,1,12.4,12.4v18.1a12.4,12.4,0,0,1-12.4,12.4H337.4Z" transform="translate(-122.1 -298.2)"/>
    <path class="cls-1" d="M707.9,396.2v18.1a12.4,12.4,0,0,1-12.4,12.4H677.4A12.4,12.4,0,0,1,665,414.3V383.9h30.4A12.21,12.21,0,0,1,707.9,396.2Z" transform="translate(-122.1 -298.2)"/>
    <text class="cls-2" transform="translate(1.22 292.38)">semana_</text>
    <text class="cls-2" transform="translate(1.22 342.74)">de_informática</text>
</svg>