<svg width="795" height="828" viewBox="0 0 795 828" fill="none" xmlns="http://www.w3.org/2000/svg">
<path d="M116.111 413.742H275.19C308.543 413.742 340.531 426.992 364.116 450.577C387.7 474.161 400.95 506.149 400.95 539.503V698.528C400.95 715.976 407.882 732.71 420.219 745.048C432.557 757.386 449.291 764.317 466.739 764.317H685.789C703.238 764.317 719.971 757.386 732.309 745.048C744.647 732.71 751.578 715.976 751.578 698.528V479.531C751.578 462.083 744.647 445.349 732.309 433.011C719.971 420.673 703.238 413.742 685.789 413.742H526.711C493.357 413.742 461.369 400.492 437.785 376.908C414.2 353.323 400.95 321.335 400.95 287.981V128.956C400.95 111.508 394.019 94.774 381.681 82.4361C369.343 70.0983 352.61 63.167 335.161 63.167H116.111C98.663 63.167 81.9293 70.0983 69.5914 82.4361C57.2536 94.774 50.3223 111.508 50.3223 128.956L50.3223 347.953C50.3223 365.401 57.2536 382.135 69.5914 394.473C81.9293 406.811 98.663 413.742 116.111 413.742V413.742Z" fill="#023047"/>
<path d="M157.627 353.355H316.706C350.059 353.355 382.047 366.605 405.632 390.19C429.217 413.775 442.466 445.762 442.466 479.116V638.141C442.466 655.59 449.398 672.324 461.736 684.661C474.073 696.999 490.807 703.93 508.255 703.93H727.305C744.754 703.93 761.487 696.999 773.825 684.661C786.163 672.324 793.094 655.59 793.094 638.141V419.144C793.094 401.696 786.163 384.962 773.825 372.625C761.487 360.287 744.754 353.355 727.305 353.355H568.227C534.873 353.355 502.886 340.106 479.301 316.521C455.716 292.936 442.466 260.949 442.466 227.595V68.5693C442.466 51.121 435.535 34.3873 423.197 22.0494C410.859 9.71159 394.126 2.78027 376.677 2.78027H157.627C140.179 2.78027 123.445 9.71159 111.108 22.0494C98.7697 34.3873 91.8384 51.121 91.8384 68.5693L91.8384 287.566C91.8384 305.015 98.7697 321.748 111.108 334.086C123.445 346.424 140.179 353.355 157.627 353.355V353.355Z" fill="#023047"/>
<g filter="url(#filter0_b_576_24)">
<path d="M65.789 476.645H224.867C258.221 476.645 290.209 489.895 313.794 513.48C337.378 537.065 350.628 569.052 350.628 602.406V761.431C350.628 778.88 357.559 795.614 369.897 807.951C382.235 820.289 398.969 827.221 416.417 827.221H635.467C652.915 827.221 669.649 820.289 681.987 807.951C694.325 795.614 701.256 778.88 701.256 761.431V542.434C701.256 524.986 694.325 508.252 681.987 495.915C669.649 483.577 652.915 476.645 635.467 476.645H476.389C443.035 476.645 411.047 463.396 387.462 439.811C363.878 416.226 350.628 384.239 350.628 350.885V191.859C350.628 174.411 343.697 157.677 331.359 145.339C319.021 133.002 302.287 126.07 284.839 126.07H65.789C48.3407 126.07 31.607 133.002 19.2692 145.339C6.93132 157.677 0 174.411 0 191.859L0 410.856C0 428.305 6.93132 445.038 19.2692 457.376C31.607 469.714 48.3407 476.645 65.789 476.645V476.645Z" fill="url(#paint0_linear_576_24)"/>
<path d="M682.217 767.249H463.062C444.828 767.249 427.341 760.006 414.448 747.112C401.554 734.219 394.311 716.732 394.311 698.498V539.579C394.269 507.014 381.321 475.793 358.304 452.756C335.287 429.719 304.077 416.744 271.512 416.674H112.434C94.1999 416.674 76.7129 409.431 63.8197 396.537C50.9264 383.644 43.6831 366.157 43.6831 347.923V129.138C43.6831 110.904 50.9264 93.417 63.8197 80.5238C76.7129 67.6306 94.1999 60.3872 112.434 60.3872L331.484 60.3872C349.717 60.3872 367.204 67.6306 380.098 80.5238C392.991 93.417 400.234 110.904 400.234 129.138V288.057C400.276 320.623 413.224 351.844 436.241 374.881C459.258 397.918 490.468 410.892 523.033 410.962H682.217C700.451 410.962 717.938 418.206 730.831 431.099C743.724 443.992 750.968 461.479 750.968 479.713V698.763C750.898 716.951 743.624 734.37 730.738 747.206C717.852 760.042 700.405 767.249 682.217 767.249ZM112.434 66.0988C95.733 66.1268 79.726 72.7808 67.9267 84.5998C56.1275 96.4189 49.5004 112.437 49.5005 129.138V348.082C49.5285 364.759 56.1696 380.745 67.9673 392.533C79.765 404.321 95.7562 410.948 112.434 410.962H271.512C305.61 411.004 338.3 424.568 362.411 448.68C386.522 472.791 400.086 505.48 400.128 539.579V698.657C400.156 715.335 406.798 731.32 418.595 743.108C430.393 754.896 446.384 761.523 463.062 761.537H682.217C698.89 761.523 714.876 754.894 726.665 743.105C738.454 731.315 745.084 715.33 745.098 698.657V479.607C745.084 462.93 738.456 446.938 726.668 435.141C714.88 423.343 698.895 416.702 682.217 416.674H523.033C488.935 416.632 456.245 403.068 432.134 378.957C408.023 354.845 394.459 322.156 394.417 288.057V129.138C394.389 112.455 387.749 96.4644 375.953 84.6682C364.157 72.872 348.166 66.2325 331.484 66.2046L112.434 66.0988Z" fill="url(#paint1_linear_576_24)"/>
</g>
<g style="mix-blend-mode:soft-light">
<path d="M109.821 416.259H268.9C302.253 416.259 334.241 429.508 357.826 453.093C381.41 476.678 394.66 508.666 394.66 542.019V701.045C394.66 718.493 401.592 735.227 413.929 747.565C426.267 759.903 443.001 766.834 460.449 766.834H679.499C696.948 766.834 713.681 759.903 726.019 747.565C738.357 735.227 745.288 718.493 745.288 701.045V482.048C745.288 464.599 738.357 447.866 726.019 435.528C713.681 423.19 696.948 416.259 679.499 416.259H520.421C487.067 416.259 455.079 403.009 431.495 379.424C407.91 355.84 394.66 323.852 394.66 290.498V131.473C394.66 114.024 387.729 97.2906 375.391 84.9527C363.053 72.6149 346.32 65.6836 328.871 65.6836H109.821C92.3729 65.6836 75.6392 72.6149 63.3014 84.9527C50.9636 97.2906 44.0322 114.024 44.0322 131.473L44.0322 350.47C44.0322 367.918 50.9636 384.652 63.3014 396.99C75.6392 409.327 92.3729 416.259 109.821 416.259V416.259Z" fill="url(#paint2_linear_576_24)"/>
<path d="M726.249 706.862H507.094C488.86 706.862 471.373 699.618 458.48 686.725C445.587 673.832 438.343 656.345 438.343 638.111V479.192C438.301 446.626 425.353 415.405 402.336 392.368C379.319 369.331 348.109 356.357 315.544 356.287H156.466C138.232 356.287 120.745 349.043 107.852 336.15C94.9587 323.257 87.7153 305.77 87.7153 287.536V68.7506C87.7153 50.5168 94.9587 33.0298 107.852 20.1366C120.745 7.24334 138.232 0 156.466 0L375.516 0C393.75 0 411.237 7.24334 424.13 20.1366C437.023 33.0298 444.266 50.5168 444.266 68.7506V227.67C444.308 260.235 457.256 291.456 480.273 314.493C503.29 337.53 534.5 350.505 567.065 350.575H726.249C744.483 350.575 761.97 357.818 774.863 370.712C787.757 383.605 795 401.092 795 419.326V638.376C794.93 656.564 787.656 673.983 774.77 686.819C761.885 699.655 744.438 706.862 726.249 706.862ZM156.466 5.71159C139.765 5.73961 123.758 12.3936 111.959 24.2126C100.16 36.0317 93.5327 52.0499 93.5327 68.7506V287.695C93.5607 304.372 100.202 320.358 112 332.146C123.797 343.933 139.788 350.561 156.466 350.575H315.544C349.642 350.617 382.332 364.181 406.443 388.292C430.555 412.404 444.119 445.093 444.161 479.192V638.27C444.189 654.947 450.83 670.933 462.627 682.721C474.425 694.509 490.416 701.136 507.094 701.15H726.249C742.922 701.136 758.908 694.507 770.697 682.717C782.486 670.928 789.116 654.942 789.13 638.27V419.22C789.116 402.542 782.488 386.551 770.7 374.754C758.913 362.956 742.927 356.315 726.249 356.287H567.065C532.967 356.245 500.277 342.681 476.166 318.569C452.055 294.458 438.491 261.769 438.449 227.67V68.7506C438.421 52.0682 431.782 36.0772 419.985 24.281C408.189 12.4848 392.198 5.84532 375.516 5.81736L156.466 5.71159Z" fill="url(#paint3_linear_576_24)"/>
<g style="mix-blend-mode:soft-light">
<path d="M109.821 416.259H268.9C302.253 416.259 334.241 429.508 357.826 453.093C381.41 476.678 394.66 508.666 394.66 542.019V701.045C394.66 718.493 401.592 735.227 413.929 747.565C426.267 759.903 443.001 766.834 460.449 766.834H679.499C696.948 766.834 713.681 759.903 726.019 747.565C738.357 735.227 745.288 718.493 745.288 701.045V482.048C745.288 464.599 738.357 447.866 726.019 435.528C713.681 423.19 696.948 416.259 679.499 416.259H520.421C487.067 416.259 455.079 403.009 431.495 379.424C407.91 355.84 394.66 323.852 394.66 290.498V131.473C394.66 114.024 387.729 97.2906 375.391 84.9527C363.053 72.6149 346.32 65.6836 328.871 65.6836H109.821C92.3729 65.6836 75.6392 72.6149 63.3014 84.9527C50.9636 97.2906 44.0322 114.024 44.0322 131.473L44.0322 350.47C44.0322 367.918 50.9636 384.652 63.3014 396.99C75.6392 409.327 92.3729 416.259 109.821 416.259V416.259Z" fill="url(#paint4_linear_576_24)"/>
<path d="M726.25 706.862H507.094C488.86 706.862 471.373 699.618 458.48 686.725C445.587 673.832 438.343 656.345 438.343 638.111V479.192C438.301 446.626 425.354 415.405 402.336 392.368C379.319 369.331 348.109 356.357 315.544 356.287H156.466C138.232 356.287 120.745 349.043 107.852 336.15C94.9587 323.257 87.7153 305.77 87.7153 287.536V68.7506C87.7153 50.5168 94.9587 33.0298 107.852 20.1366C120.745 7.24334 138.232 0 156.466 0L375.516 0C393.75 0 411.237 7.24334 424.13 20.1366C437.023 33.0298 444.266 50.5168 444.266 68.7506V227.67C444.308 260.235 457.256 291.456 480.273 314.493C503.291 337.53 534.5 350.505 567.066 350.575H726.25C744.483 350.575 761.97 357.818 774.864 370.712C787.757 383.605 795 401.092 795 419.326V638.376C794.93 656.564 787.656 673.983 774.77 686.819C761.885 699.655 744.438 706.862 726.25 706.862ZM156.466 5.71159C139.765 5.73961 123.758 12.3936 111.959 24.2126C100.16 36.0317 93.5327 52.0499 93.5327 68.7506V287.695C93.5607 304.372 100.202 320.358 112 332.146C123.797 343.933 139.788 350.561 156.466 350.575H315.544C349.642 350.617 382.332 364.181 406.443 388.292C430.555 412.404 444.119 445.093 444.161 479.192V638.27C444.189 654.947 450.83 670.933 462.627 682.721C474.425 694.509 490.416 701.136 507.094 701.15H726.25C742.922 701.136 758.908 694.507 770.697 682.717C782.486 670.928 789.116 654.942 789.13 638.27V419.22C789.116 402.542 782.488 386.551 770.7 374.754C758.913 362.956 742.927 356.315 726.25 356.287H567.066C532.967 356.245 500.277 342.681 476.166 318.569C452.055 294.458 438.491 261.769 438.449 227.67V68.7506C438.421 52.0682 431.782 36.0772 419.985 24.281C408.189 12.4847 392.198 5.84532 375.516 5.81736L156.466 5.71159Z" fill="url(#paint5_linear_576_24)"/>
<path d="M726.25 706.862H507.094C488.86 706.862 471.373 699.618 458.48 686.725C445.587 673.832 438.343 656.345 438.343 638.111V479.192C438.301 446.626 425.354 415.405 402.336 392.368C379.319 369.331 348.109 356.357 315.544 356.287H156.466C138.232 356.287 120.745 349.043 107.852 336.15C94.9587 323.257 87.7153 305.77 87.7153 287.536V68.7506C87.7153 50.5168 94.9587 33.0298 107.852 20.1366C120.745 7.24334 138.232 0 156.466 0L375.516 0C393.75 0 411.237 7.24334 424.13 20.1366C437.023 33.0298 444.266 50.5168 444.266 68.7506V227.67C444.308 260.235 457.256 291.456 480.273 314.493C503.291 337.53 534.5 350.505 567.066 350.575H726.25C744.483 350.575 761.97 357.818 774.864 370.712C787.757 383.605 795 401.092 795 419.326V638.376C794.93 656.564 787.656 673.983 774.77 686.819C761.885 699.655 744.438 706.862 726.25 706.862ZM156.466 5.71159C139.765 5.73961 123.758 12.3936 111.959 24.2126C100.16 36.0317 93.5327 52.0499 93.5327 68.7506V287.695C93.5607 304.372 100.202 320.358 112 332.146C123.797 343.933 139.788 350.561 156.466 350.575H315.544C349.642 350.617 382.332 364.181 406.443 388.292C430.555 412.404 444.119 445.093 444.161 479.192V638.27C444.189 654.947 450.83 670.933 462.627 682.721C474.425 694.509 490.416 701.136 507.094 701.15H726.25C742.922 701.136 758.908 694.507 770.697 682.717C782.486 670.928 789.116 654.942 789.13 638.27V419.22C789.116 402.542 782.488 386.551 770.7 374.754C758.913 362.956 742.927 356.315 726.25 356.287H567.066C532.967 356.245 500.277 342.681 476.166 318.569C452.055 294.458 438.491 261.769 438.449 227.67V68.7506C438.421 52.0682 431.782 36.0772 419.985 24.281C408.189 12.4847 392.198 5.84532 375.516 5.81736L156.466 5.71159Z" fill="url(#paint6_linear_576_24)"/>
</g>
</g>
<defs>
<filter id="filter0_b_576_24" x="-4" y="56.3872" width="758.968" height="774.833" filterUnits="userSpaceOnUse" color-interpolation-filters="sRGB">
<feFlood flood-opacity="0" result="BackgroundImageFix"/>
<feGaussianBlur in="BackgroundImageFix" stdDeviation="2"/>
<feComposite in2="SourceAlpha" operator="in" result="effect1_backgroundBlur_576_24"/>
<feBlend mode="normal" in="SourceGraphic" in2="effect1_backgroundBlur_576_24" result="shape"/>
</filter>
<linearGradient id="paint0_linear_576_24" x1="350.628" y1="126.07" x2="350.628" y2="827.221" gradientUnits="userSpaceOnUse">
<stop stop-color="#EE6D19"/>
<stop offset="1" stop-color="#FFB703"/>
</linearGradient>
<linearGradient id="paint1_linear_576_24" x1="397.326" y1="60.3872" x2="397.326" y2="767.249" gradientUnits="userSpaceOnUse">
<stop stop-color="#EE6D19"/>
<stop offset="1" stop-color="#FFB703"/>
</linearGradient>
<linearGradient id="paint2_linear_576_24" x1="394.66" y1="65.6836" x2="394.66" y2="766.834" gradientUnits="userSpaceOnUse">
<stop stop-color="#19D4EE"/>
<stop offset="1" stop-color="#219EBC"/>
</linearGradient>
<linearGradient id="paint3_linear_576_24" x1="441.358" y1="0" x2="441.358" y2="706.862" gradientUnits="userSpaceOnUse">
<stop stop-color="#19D4EE"/>
<stop offset="1" stop-color="#219EBC"/>
</linearGradient>
<linearGradient id="paint4_linear_576_24" x1="394.66" y1="65.6836" x2="394.66" y2="766.834" gradientUnits="userSpaceOnUse">
<stop stop-color="#19D4EE"/>
<stop offset="1" stop-color="#219EBC"/>
</linearGradient>
<linearGradient id="paint5_linear_576_24" x1="441.358" y1="0" x2="441.358" y2="706.862" gradientUnits="userSpaceOnUse">
<stop stop-color="#19D4EE"/>
<stop offset="1" stop-color="#219EBC"/>
</linearGradient>
<linearGradient id="paint6_linear_576_24" x1="441.358" y1="0" x2="441.358" y2="706.862" gradientUnits="userSpaceOnUse">
<stop stop-color="#19D4EE"/>
<stop offset="1" stop-color="#219EBC"/>
</linearGradient>
</defs>
</svg>
