<svg width="160" height="160" viewBox="0 0 160 160" fill="none" xmlns="http://www.w3.org/2000/svg">
<g filter="url(#filter0_b_378_167)">
<path d="M13.2406 92.193H45.2564C51.9691 92.193 58.4069 94.7557 63.1535 99.3174C67.9001 103.879 70.5667 110.066 70.5667 116.517V147.276C70.5667 150.65 71.9617 153.887 74.4448 156.273C76.9279 158.66 80.2957 160 83.8073 160H127.893C131.405 160 134.772 158.66 137.255 156.273C139.738 153.887 141.133 150.65 141.133 147.276V104.918C141.133 101.543 139.738 98.3063 137.255 95.92C134.772 93.5336 131.405 92.193 127.893 92.193H95.8771C89.1644 92.193 82.7266 89.6302 77.98 85.0685C73.2334 80.5068 70.5667 74.3198 70.5667 67.8686V37.1103C70.5667 33.7354 69.1718 30.4989 66.6887 28.1125C64.2056 25.7261 60.8378 24.3855 57.3262 24.3855H13.2406C9.72896 24.3855 6.36117 25.7261 3.87808 28.1125C1.39499 30.4989 0 33.7354 0 37.1103L0 79.4682C0 82.843 1.39499 86.0796 3.87808 88.466C6.36117 90.8523 9.72896 92.193 13.2406 92.193Z" fill="url(#paint0_linear_378_167)"/>
<path d="M137.301 148.4H93.1944C89.5247 148.4 86.0053 146.999 83.4104 144.505C80.8155 142.012 79.3578 138.629 79.3578 135.103V104.365C79.3493 98.0659 76.7435 92.0272 72.1111 87.5715C67.4787 83.1157 61.1974 80.6062 54.6434 80.5926H22.6276C18.9579 80.5926 15.4385 79.1916 12.8437 76.6978C10.2488 74.2041 8.79102 70.8218 8.79102 67.295V24.978C8.79102 21.4513 10.2488 18.069 12.8437 15.5752C15.4385 13.0814 18.9579 11.6804 22.6276 11.6804L66.7132 11.6804C70.3829 11.6804 73.9023 13.0814 76.4972 15.5752C79.0921 18.069 80.5498 21.4513 80.5498 24.978V55.7159C80.5583 62.0146 83.1641 68.0533 87.7965 72.5091C92.4289 76.9648 98.7102 79.4744 105.264 79.4879H137.301C140.971 79.4879 144.49 80.8889 147.085 83.3827C149.68 85.8764 151.138 89.2588 151.138 92.7855V135.154C151.124 138.672 149.66 142.041 147.066 144.523C144.473 147.006 140.962 148.4 137.301 148.4ZM22.6276 12.7851C19.2665 12.7906 16.0449 14.0776 13.6702 16.3636C11.2956 18.6496 9.9618 21.7478 9.96181 24.978V67.3257C9.96744 70.5514 11.304 73.6433 13.6784 75.9233C16.0528 78.2033 19.2712 79.4852 22.6276 79.4879H54.6434C61.506 79.496 68.0851 82.1196 72.9376 86.7831C77.7902 91.4466 80.5201 97.7694 80.5286 104.365V135.133C80.5342 138.359 81.8708 141.451 84.2452 143.731C86.6195 146.011 89.8379 147.293 93.1944 147.295H137.301C140.657 147.293 143.874 146.01 146.247 143.73C148.619 141.45 149.954 138.358 149.956 135.133V92.765C149.954 89.5393 148.62 86.4463 146.247 84.1644C143.875 81.8826 140.658 80.598 137.301 80.5926H105.264C98.4016 80.5845 91.8225 77.961 86.9699 73.2974C82.1174 68.6339 79.3875 62.3111 79.3791 55.7159V24.978C79.3734 21.7513 78.0372 18.6584 75.6631 16.3768C73.289 14.0952 70.0707 12.811 66.7132 12.8056L22.6276 12.7851Z" fill="url(#paint1_linear_378_167)"/>
</g>
<g style="mix-blend-mode:soft-light">
<path d="M22.1019 80.5126H54.1177C60.8304 80.5126 67.2682 83.0753 72.0148 87.637C76.7615 92.1987 79.4281 98.3857 79.4281 104.837V135.595C79.4281 138.97 80.8231 142.207 83.3061 144.593C85.7892 146.979 89.157 148.32 92.6686 148.32H136.754C140.266 148.32 143.634 146.979 146.117 144.593C148.6 142.207 149.995 138.97 149.995 135.595V93.2373C149.995 89.8625 148.6 86.6259 146.117 84.2395C143.634 81.8532 140.266 80.5126 136.754 80.5126H104.738C98.0257 80.5126 91.5879 77.9498 86.8413 73.3881C82.0947 68.8264 79.4281 62.6394 79.4281 56.1882V25.4298C79.4281 22.055 78.0331 18.8184 75.55 16.4321C73.0669 14.0457 69.6991 12.7051 66.1875 12.7051H22.1019C18.5903 12.7051 15.2225 14.0457 12.7394 16.4321C10.2563 18.8184 8.86133 22.055 8.86133 25.4298L8.86133 67.7878C8.86133 71.1626 10.2563 74.3992 12.7394 76.7856C15.2225 79.1719 18.5903 80.5126 22.1019 80.5126Z" fill="url(#paint2_linear_378_167)"/>
<path d="M146.163 136.72H102.056C98.386 136.72 94.8666 135.319 92.2717 132.825C89.6769 130.331 88.2191 126.949 88.2191 123.422V92.6842C88.2106 86.3855 85.6048 80.3468 80.9724 75.891C76.34 71.4353 70.0588 68.9257 63.5048 68.9122H31.489C27.8193 68.9122 24.2999 67.5112 21.705 65.0174C19.1101 62.5236 17.6523 59.1413 17.6523 55.6146V13.2976C17.6523 9.77085 19.1101 6.38856 21.705 3.89477C24.2999 1.40099 27.8193 0 31.489 0L75.5745 0C79.2442 0 82.7636 1.40099 85.3585 3.89477C87.9534 6.38856 89.4112 9.77085 89.4112 13.2976V44.0355C89.4196 50.3342 92.0255 56.3729 96.6579 60.8286C101.29 65.2844 107.571 67.794 114.125 67.8075H146.163C149.832 67.8075 153.352 69.2085 155.947 71.7022C158.541 74.196 159.999 77.5783 159.999 81.1051V123.473C159.985 126.991 158.521 130.36 155.928 132.843C153.334 135.326 149.823 136.72 146.163 136.72ZM31.489 1.10472C28.1278 1.11014 24.9063 2.39714 22.5316 4.68316C20.1569 6.96917 18.8231 10.0674 18.8231 13.2976V55.6453C18.8288 58.871 20.1653 61.9629 22.5397 64.2429C24.9141 66.5229 28.1325 67.8048 31.489 67.8075H63.5048C70.3673 67.8156 76.9464 70.4391 81.799 75.1027C86.6515 79.7662 89.3814 86.089 89.3899 92.6842V123.453C89.3955 126.678 90.7321 129.77 93.1065 132.05C95.4809 134.33 98.6992 135.612 102.056 135.615H146.163C149.518 135.612 152.735 134.33 155.108 132.05C157.481 129.769 158.815 126.678 158.818 123.453V81.0846C158.815 77.8589 157.481 74.7659 155.109 72.484C152.736 70.2021 149.519 68.9176 146.163 68.9122H114.125C107.263 68.9041 100.684 66.2805 95.8313 61.617C90.9787 56.9535 88.2488 50.6307 88.2404 44.0355V13.2976C88.2347 10.0709 86.8985 6.97797 84.5244 4.69637C82.1503 2.41477 78.932 1.13059 75.5745 1.12518L31.489 1.10472Z" fill="url(#paint3_linear_378_167)"/>
<g style="mix-blend-mode:soft-light">
<path d="M22.1019 80.5126H54.1177C60.8304 80.5126 67.2682 83.0753 72.0148 87.637C76.7615 92.1987 79.4281 98.3857 79.4281 104.837V135.595C79.4281 138.97 80.8231 142.207 83.3061 144.593C85.7892 146.979 89.157 148.32 92.6686 148.32H136.754C140.266 148.32 143.634 146.979 146.117 144.593C148.6 142.207 149.995 138.97 149.995 135.595V93.2373C149.995 89.8625 148.6 86.6259 146.117 84.2395C143.634 81.8532 140.266 80.5126 136.754 80.5126H104.738C98.0257 80.5126 91.5879 77.9498 86.8413 73.3881C82.0947 68.8264 79.4281 62.6394 79.4281 56.1882V25.4298C79.4281 22.055 78.0331 18.8184 75.55 16.4321C73.0669 14.0457 69.6991 12.7051 66.1875 12.7051H22.1019C18.5903 12.7051 15.2225 14.0457 12.7394 16.4321C10.2563 18.8184 8.86133 22.055 8.86133 25.4298L8.86133 67.7878C8.86133 71.1626 10.2563 74.3992 12.7394 76.7856C15.2225 79.1719 18.5903 80.5126 22.1019 80.5126Z" fill="url(#paint4_linear_378_167)"/>
<path d="M146.163 136.72H102.056C98.386 136.72 94.8666 135.319 92.2717 132.825C89.6769 130.331 88.2191 126.949 88.2191 123.422V92.6842C88.2106 86.3855 85.6048 80.3468 80.9724 75.891C76.34 71.4353 70.0588 68.9257 63.5048 68.9122H31.489C27.8193 68.9122 24.2999 67.5112 21.705 65.0174C19.1101 62.5236 17.6523 59.1413 17.6523 55.6146V13.2976C17.6523 9.77085 19.1101 6.38856 21.705 3.89477C24.2999 1.40099 27.8193 0 31.489 0L75.5745 0C79.2442 0 82.7636 1.40099 85.3585 3.89477C87.9534 6.38856 89.4112 9.77085 89.4112 13.2976V44.0355C89.4196 50.3342 92.0255 56.3729 96.6579 60.8286C101.29 65.2844 107.571 67.794 114.125 67.8075H146.163C149.832 67.8075 153.352 69.2085 155.947 71.7022C158.541 74.196 159.999 77.5783 159.999 81.1051V123.473C159.985 126.991 158.521 130.36 155.928 132.843C153.334 135.326 149.823 136.72 146.163 136.72ZM31.489 1.10472C28.1278 1.11014 24.9063 2.39714 22.5316 4.68316C20.1569 6.96917 18.8231 10.0674 18.8231 13.2976V55.6453C18.8288 58.871 20.1653 61.9629 22.5397 64.2429C24.9141 66.5229 28.1325 67.8048 31.489 67.8075H63.5048C70.3673 67.8156 76.9464 70.4391 81.799 75.1027C86.6515 79.7662 89.3814 86.089 89.3899 92.6842V123.453C89.3955 126.678 90.7321 129.77 93.1065 132.05C95.4809 134.33 98.6992 135.612 102.056 135.615H146.163C149.518 135.612 152.735 134.33 155.108 132.05C157.481 129.769 158.815 126.678 158.818 123.453V81.0846C158.815 77.8589 157.481 74.7659 155.109 72.484C152.736 70.2021 149.519 68.9176 146.163 68.9122H114.125C107.263 68.9041 100.684 66.2805 95.8313 61.617C90.9787 56.9535 88.2488 50.6307 88.2404 44.0355V13.2976C88.2347 10.0709 86.8985 6.97797 84.5244 4.69637C82.1503 2.41477 78.932 1.13059 75.5745 1.12518L31.489 1.10472Z" fill="url(#paint5_linear_378_167)"/>
</g>
</g>
<defs>
<filter id="filter0_b_378_167" x="-4" y="7.68042" width="159.139" height="156.32" filterUnits="userSpaceOnUse" color-interpolation-filters="sRGB">
<feFlood flood-opacity="0" result="BackgroundImageFix"/>
<feGaussianBlur in="BackgroundImage" stdDeviation="2"/>
<feComposite in2="SourceAlpha" operator="in" result="effect1_backgroundBlur_378_167"/>
<feBlend mode="normal" in="SourceGraphic" in2="effect1_backgroundBlur_378_167" result="shape"/>
</filter>
<linearGradient id="paint0_linear_378_167" x1="70.5667" y1="24.3855" x2="70.5667" y2="160" gradientUnits="userSpaceOnUse">
<stop stop-color="#EE6D19"/>
<stop offset="1" stop-color="#FFB703"/>
</linearGradient>
<linearGradient id="paint1_linear_378_167" x1="79.9644" y1="11.6804" x2="79.9644" y2="148.4" gradientUnits="userSpaceOnUse">
<stop stop-color="#EE6D19"/>
<stop offset="1" stop-color="#FFB703"/>
</linearGradient>
<linearGradient id="paint2_linear_378_167" x1="79.4281" y1="12.7051" x2="79.4281" y2="148.32" gradientUnits="userSpaceOnUse">
<stop stop-color="#19D4EE"/>
<stop offset="1" stop-color="#219EBC"/>
</linearGradient>
<linearGradient id="paint3_linear_378_167" x1="88.8258" y1="0" x2="88.8258" y2="136.72" gradientUnits="userSpaceOnUse">
<stop stop-color="#19D4EE"/>
<stop offset="1" stop-color="#219EBC"/>
</linearGradient>
<linearGradient id="paint4_linear_378_167" x1="79.4281" y1="12.7051" x2="79.4281" y2="148.32" gradientUnits="userSpaceOnUse">
<stop stop-color="#19D4EE"/>
<stop offset="1" stop-color="#219EBC"/>
</linearGradient>
<linearGradient id="paint5_linear_378_167" x1="88.8258" y1="0" x2="88.8258" y2="136.72" gradientUnits="userSpaceOnUse">
<stop stop-color="#19D4EE"/>
<stop offset="1" stop-color="#219EBC"/>
</linearGradient>
</defs>
</svg>
