<svg width="826" height="365" viewBox="0 0 826 365" fill="none" xmlns="http://www.w3.org/2000/svg">
<path d="M215.424 15.0916V68.4137C215.41 72.7764 214.065 76.9555 211.681 80.0404C209.298 83.1253 206.068 84.8661 202.697 84.8832H59.9372C63.4784 84.8875 66.8737 86.71 69.3778 89.9506C71.8818 93.1912 73.2901 97.5852 73.2934 102.168V139.021C73.2934 142.608 73.9234 154.512 83.2475 154.512H86.3976C86.5236 154.512 86.6496 154.675 86.7756 154.675C87.4841 154.534 88.2012 154.48 88.9176 154.512H111.724C115.868 154.512 119.842 156.642 122.772 160.434C125.702 164.226 127.348 169.369 127.348 174.732V204.246C127.348 209.609 125.702 214.752 122.772 218.544C119.842 222.336 115.868 224.467 111.724 224.467H88.9176C84.7738 224.467 80.7997 222.336 77.8696 218.544C74.9395 214.752 73.2934 209.609 73.2934 204.246V167.068C72.9154 162.665 71.4034 155.979 65.4813 154.675C64.4773 154.532 63.4669 154.478 62.4572 154.512C62.0792 154.512 61.5752 154.675 61.3232 154.512H61.1972C60.743 154.647 60.2768 154.702 59.8112 154.675H32.5948C30.8316 154.668 29.0867 154.212 27.4603 153.33C25.8338 152.449 24.3578 151.161 23.1169 149.54C21.876 147.919 20.8947 145.997 20.2291 143.884C19.5636 141.771 19.227 139.509 19.2386 137.227V31.398C19.2386 27.0733 20.5661 22.9257 22.9291 19.8676C25.2921 16.8096 28.497 15.0916 31.8388 15.0916H215.424Z" fill="#023047"/>
<path d="M215.424 274.131C215.424 274.947 215.297 275.926 215.297 276.742H215.424V311.665H215.171C215.318 312.689 215.402 313.725 215.424 314.766V343.487C215.42 348.94 213.745 354.167 210.767 358.022C207.788 361.878 203.749 364.045 199.537 364.05H19.2383V314.766C19.2416 309.314 20.9164 304.086 23.895 300.231C26.8736 296.376 30.9124 294.208 35.1248 294.204H161.46V174.747C161.458 172.111 161.858 169.499 162.637 167.063C163.416 164.627 164.558 162.413 165.999 160.549C167.439 158.685 169.149 157.206 171.032 156.198C172.914 155.19 174.931 154.672 176.968 154.675H199.915C201.952 154.672 203.97 155.19 205.852 156.198C207.734 157.206 209.445 158.685 210.885 160.549C212.325 162.413 213.468 164.627 214.246 167.063C215.025 169.499 215.425 172.111 215.424 174.747V274.131Z" fill="#023047"/>
<path d="M825.189 31.4056V68.4386C825.175 72.8034 823.792 76.9844 821.341 80.0708C818.889 83.1571 815.568 84.8987 812.102 84.9159H665.294C668.95 84.9114 672.459 86.7267 675.056 89.9661C677.653 93.2054 679.128 97.6061 679.159 102.209V346.594C679.155 351.222 677.694 355.66 675.094 358.932C672.495 362.205 668.97 364.046 665.294 364.05H623.701V31.4056C623.701 27.0789 625.066 22.9294 627.496 19.8699C629.926 16.8104 633.222 15.0916 636.659 15.0916H812.231C815.668 15.0916 818.964 16.8104 821.394 19.8699C823.824 22.9294 825.189 27.0789 825.189 31.4056Z" fill="#023047"/>
<path d="M591.886 102.086V346.586C591.883 351.216 590.436 355.656 587.863 358.93C585.289 362.204 581.801 364.045 578.162 364.05H550.585C548.79 364.043 547.014 363.586 545.358 362.704C543.702 361.822 542.2 360.533 540.936 358.91C539.673 357.288 538.674 355.364 537.997 353.249C537.319 351.134 536.977 348.87 536.988 346.586V97.353C536.604 92.9462 535.064 86.091 529.036 84.7853H524.931C523.777 84.7853 523.136 84.4589 523.136 83.9692V84.7853H433.35C436.969 84.7808 440.442 86.597 443.013 89.8379C445.584 93.0787 447.044 97.4815 447.074 102.086V346.586C447.071 351.216 445.624 355.656 443.051 358.93C440.478 362.204 436.989 364.045 433.35 364.05H247.236V321.613C247.233 316.186 248.917 310.977 251.921 307.124C254.925 303.271 259.004 301.087 263.27 301.048H293.284C300.851 299.579 301.364 289.296 301.364 285.869V218.787C301.344 218.345 301.387 217.902 301.493 217.481H269.298C267.183 217.474 265.09 216.937 263.139 215.899C261.187 214.861 259.416 213.344 257.927 211.433C256.437 209.523 255.259 207.257 254.459 204.766C253.659 202.274 253.253 199.607 253.265 196.915V157.417H333.431C337.716 157.421 341.825 159.589 344.855 163.445C347.885 167.301 349.589 172.529 349.592 177.982V196.915C349.592 197.732 349.464 198.711 349.464 199.527V300.885H392.433V31.4133C392.433 27.0845 393.784 22.933 396.19 19.8721C398.595 16.8112 401.858 15.0916 405.26 15.0916H537.886C541.288 15.0916 544.551 16.8112 546.956 19.8721C549.361 22.933 550.713 27.0845 550.713 31.4133V69.2797C550.713 72.8704 551.482 84.4588 561.744 84.6221C562.06 84.632 562.369 84.7443 562.642 84.9485H578.162C579.95 84.914 581.726 85.3312 583.386 86.1762C585.047 87.0211 586.559 88.277 587.836 89.871C589.112 91.465 590.128 93.3654 590.823 95.4622C591.518 97.559 591.879 99.8105 591.886 102.086Z" fill="#023047"/>
<path d="M294.957 84.7205V35.2644C294.957 29.9142 296.572 24.7832 299.446 21C302.32 17.2169 306.218 15.0916 310.283 15.0916H332.654C336.719 15.0916 340.617 17.2169 343.491 21C346.365 24.7832 347.98 29.9142 347.98 35.2644V64.7103C347.98 70.0605 346.365 75.1915 343.491 78.9747C340.617 82.7578 336.719 84.8832 332.654 84.8832H294.957V84.7205Z" fill="#023047"/>
<path d="M772.165 174.736V204.248C772.165 209.61 770.389 214.753 767.227 218.544C764.065 222.336 759.777 224.466 755.306 224.466H730.698C726.227 224.466 721.939 222.336 718.778 218.544C715.616 214.753 713.84 209.61 713.84 204.248V154.68H755.17C757.394 154.617 759.605 155.09 761.673 156.071C763.741 157.052 765.623 158.522 767.208 160.393C768.793 162.263 770.049 164.497 770.9 166.961C771.752 169.425 772.182 172.069 772.165 174.736Z" fill="#023047"/>
<path d="M193.763 0V46.272C193.75 50.0578 192.422 53.6844 190.067 56.3614C187.713 59.0384 184.524 60.549 181.194 60.5639H40.1964C43.694 60.5677 47.0473 62.1491 49.5205 64.9613C51.9936 67.7734 53.3845 71.5864 53.3878 75.5634V107.543C53.3878 110.656 54.01 120.986 63.219 120.986H66.3302C66.4546 120.986 66.5791 121.128 66.7035 121.128C67.4033 121.006 68.1116 120.959 68.8191 120.986H91.3439C95.4365 120.986 99.3616 122.835 102.256 126.126C105.149 129.416 106.775 133.879 106.775 138.533V164.145C106.775 168.799 105.149 173.262 102.256 176.552C99.3616 179.843 95.4365 181.692 91.3439 181.692H68.8191C64.7265 181.692 60.8014 179.843 57.9075 176.552C55.0136 173.262 53.3878 168.799 53.3878 164.145V131.882C53.0144 128.062 51.5211 122.26 45.6721 121.128C44.6805 121.004 43.6826 120.957 42.6854 120.986C42.312 120.986 41.8143 121.128 41.5654 120.986H41.4409C40.9923 121.103 40.5318 121.151 40.072 121.128H13.1916C11.4502 121.122 9.72685 120.726 8.12049 119.961C6.51413 119.197 5.05635 118.079 3.83077 116.672C2.60519 115.265 1.63594 113.597 0.97861 111.764C0.321282 109.93 -0.0111872 107.967 0.000287187 105.987V14.1504C0.000287187 10.3975 1.31141 6.79832 3.64524 4.1446C5.97906 1.49088 9.14441 0 12.4449 0H193.763Z" fill="url(#paint0_linear_758_3)"/>
<path d="M193.763 224.789C193.763 225.498 193.639 226.347 193.639 227.055H193.763V257.361H193.514C193.659 258.249 193.742 259.149 193.763 260.052V284.976C193.76 289.707 192.106 294.243 189.164 297.589C186.222 300.934 182.233 302.815 178.073 302.819H0V260.052C0.00329792 255.32 1.65744 250.784 4.59924 247.438C7.54103 244.093 11.53 242.212 15.6903 242.208H140.466V138.546C140.464 136.258 140.859 133.992 141.628 131.878C142.398 129.764 143.526 127.843 144.948 126.225C146.371 124.607 148.06 123.324 149.919 122.45C151.778 121.575 153.771 121.126 155.783 121.127H178.446C180.458 121.126 182.451 121.575 184.31 122.45C186.169 123.324 187.858 124.607 189.281 126.225C190.703 127.843 191.831 129.764 192.601 131.878C193.37 133.992 193.765 136.258 193.763 138.546V224.789Z" fill="url(#paint1_linear_758_3)"/>
<path d="M796 14.1571V46.2936C795.987 50.0812 794.62 53.7095 792.199 56.3878C789.778 59.0661 786.499 60.5773 783.075 60.5922H638.08C641.69 60.5884 645.156 62.1637 647.721 64.9747C650.286 67.7858 651.743 71.6046 651.773 75.5987V287.671C651.77 291.688 650.326 295.539 647.759 298.379C645.191 301.219 641.71 302.816 638.08 302.82H597V14.1571C597 10.4024 598.348 6.8015 600.748 4.14654C603.148 1.49158 606.403 0 609.797 0H783.203C786.597 0 789.852 1.49158 792.252 4.14654C794.652 6.8015 796 10.4024 796 14.1571Z" fill="url(#paint2_linear_758_3)"/>
<path d="M565.578 75.4924V287.664C565.575 291.683 564.146 295.535 561.605 298.377C559.063 301.218 555.617 302.816 552.023 302.82H524.787C523.014 302.814 521.26 302.417 519.625 301.652C517.989 300.887 516.505 299.768 515.258 298.36C514.01 296.952 513.023 295.282 512.354 293.447C511.685 291.611 511.347 289.646 511.358 287.664V71.385C510.978 67.5608 509.458 61.612 503.504 60.4789H499.45C498.31 60.4789 497.677 60.1957 497.677 59.7708V60.4789H408.999C412.574 60.4751 416.004 62.0511 418.543 64.8635C421.082 67.6758 422.524 71.4965 422.554 75.4924V287.664C422.551 291.683 421.122 295.535 418.58 298.377C416.039 301.218 412.593 302.816 408.999 302.82H225.184V265.994C225.18 261.284 226.843 256.764 229.81 253.421C232.777 250.077 236.806 248.181 241.019 248.148H270.662C278.137 246.873 278.643 237.95 278.643 234.976V176.763C278.623 176.38 278.666 175.995 278.77 175.63H246.973C244.884 175.624 242.817 175.158 240.89 174.257C238.962 173.357 237.213 172.04 235.742 170.382C234.271 168.724 233.107 166.757 232.317 164.596C231.527 162.434 231.126 160.119 231.138 157.783V123.507H310.314C314.546 123.511 318.604 125.393 321.597 128.739C324.59 132.085 326.273 136.622 326.276 141.354V157.783C326.276 158.492 326.149 159.341 326.149 160.05V248.006H368.588V14.1637C368.588 10.4072 369.922 6.80468 372.298 4.14848C374.674 1.49227 377.896 0 381.256 0H512.245C515.605 0 518.827 1.49227 521.203 4.14848C523.579 6.80468 524.913 10.4072 524.913 14.1637V47.0234C524.913 50.1395 525.674 60.1957 535.808 60.3373C536.12 60.3459 536.426 60.4434 536.695 60.6206H552.023C553.79 60.5906 555.544 60.9527 557.184 61.6859C558.824 62.4192 560.317 63.509 561.578 64.8922C562.839 66.2754 563.842 67.9246 564.528 69.7442C565.215 71.5637 565.572 73.5176 565.578 75.4924Z" fill="url(#paint3_linear_758_3)"/>
<path d="M272.314 60.4227V17.5056C272.314 12.8629 273.909 8.41022 276.748 5.12727C279.587 1.84433 283.437 0 287.451 0H309.546C313.561 0 317.411 1.84433 320.249 5.12727C323.088 8.41022 324.683 12.8629 324.683 17.5056V43.0583C324.683 47.701 323.088 52.1536 320.249 55.4366C317.411 58.7195 313.561 60.5639 309.546 60.5639H272.314V60.4227Z" fill="url(#paint4_linear_758_3)"/>
<path d="M743.63 138.536V164.146C743.63 168.799 741.876 173.262 738.753 176.552C735.631 179.843 731.396 181.691 726.98 181.691H702.676C698.26 181.691 694.025 179.843 690.902 176.552C687.78 173.262 686.025 168.799 686.025 164.146V121.132H726.846C729.041 121.077 731.225 121.488 733.268 122.339C735.31 123.191 737.169 124.466 738.735 126.089C740.3 127.713 741.54 129.651 742.381 131.789C743.222 133.927 743.647 136.222 743.63 138.536Z" fill="url(#paint5_linear_758_3)"/>
<defs>
<linearGradient id="paint0_linear_758_3" x1="96.8816" y1="0" x2="96.8816" y2="181.692" gradientUnits="userSpaceOnUse">
<stop offset="0.451042" stop-color="#FB8500"/>
<stop offset="0.9999" stop-color="#FFB703"/>
<stop offset="1" stop-color="#FFB703"/>
</linearGradient>
<linearGradient id="paint1_linear_758_3" x1="96.8816" y1="121.127" x2="96.8816" y2="302.819" gradientUnits="userSpaceOnUse">
<stop offset="0.451042" stop-color="#FB8500"/>
<stop offset="0.9999" stop-color="#FFB703"/>
<stop offset="1" stop-color="#FFB703"/>
</linearGradient>
<linearGradient id="paint2_linear_758_3" x1="696.5" y1="0" x2="696.5" y2="302.82" gradientUnits="userSpaceOnUse">
<stop offset="0.451042" stop-color="#FB8500"/>
<stop offset="0.9999" stop-color="#FFB703"/>
<stop offset="1" stop-color="#FFB703"/>
</linearGradient>
<linearGradient id="paint3_linear_758_3" x1="395.381" y1="0" x2="395.381" y2="302.82" gradientUnits="userSpaceOnUse">
<stop offset="0.451042" stop-color="#FB8500"/>
<stop offset="0.9999" stop-color="#FFB703"/>
<stop offset="1" stop-color="#FFB703"/>
</linearGradient>
<linearGradient id="paint4_linear_758_3" x1="298.499" y1="0" x2="298.499" y2="60.5639" gradientUnits="userSpaceOnUse">
<stop offset="0.451042" stop-color="#FB8500"/>
<stop offset="0.9999" stop-color="#FFB703"/>
<stop offset="1" stop-color="#FFB703"/>
</linearGradient>
<linearGradient id="paint5_linear_758_3" x1="714.828" y1="121.127" x2="714.828" y2="181.691" gradientUnits="userSpaceOnUse">
<stop offset="0.451042" stop-color="#FB8500"/>
<stop offset="0.9999" stop-color="#FFB703"/>
<stop offset="1" stop-color="#FFB703"/>
</linearGradient>
</defs>
</svg>
