<svg width="1080" height="1080" viewBox="0 0 1080 1080" fill="none" xmlns="http://www.w3.org/2000/svg">
<path d="M294.294 565.873H420.741C447.253 565.873 472.68 576.405 491.427 595.152C510.173 613.899 520.705 639.325 520.705 665.837V792.243C520.705 806.112 526.215 819.413 536.022 829.22C545.829 839.027 559.13 844.537 572.999 844.537H747.117C760.986 844.537 774.287 839.027 784.094 829.22C793.901 819.413 799.411 806.112 799.411 792.243V618.167C799.411 604.298 793.901 590.997 784.094 581.19C774.287 571.383 760.986 565.873 747.117 565.873H620.669C594.157 565.873 568.731 555.341 549.984 536.595C531.237 517.848 520.705 492.421 520.705 465.909V339.504C520.705 325.635 515.196 312.334 505.389 302.527C495.582 292.719 482.281 287.21 468.411 287.21H294.294C280.425 287.21 267.124 292.719 257.317 302.527C247.51 312.334 242 325.635 242 339.504V513.579C242 527.448 247.51 540.75 257.317 550.557C267.124 560.364 280.425 565.873 294.294 565.873V565.873Z" fill="url(#paint0_linear_559_91)"/>
<path d="M334.294 515.873H460.741C487.253 515.873 512.68 526.405 531.427 545.152C550.173 563.899 560.705 589.325 560.705 615.837V742.243C560.705 756.112 566.215 769.413 576.022 779.22C585.829 789.027 599.13 794.537 612.999 794.537H787.117C800.986 794.537 814.287 789.027 824.094 779.22C833.901 769.413 839.411 756.112 839.411 742.243V568.167C839.411 554.298 833.901 540.997 824.094 531.19C814.287 521.383 800.986 515.873 787.117 515.873H660.669C634.157 515.873 608.731 505.341 589.984 486.595C571.237 467.848 560.705 442.421 560.705 415.909V289.504C560.705 275.635 555.196 262.334 545.389 252.527C535.582 242.719 522.281 237.21 508.411 237.21H334.294C320.425 237.21 307.124 242.719 297.317 252.527C287.51 262.334 282 275.635 282 289.504V463.579C282 477.448 287.51 490.75 297.317 500.557C307.124 510.364 320.425 515.873 334.294 515.873V515.873Z" fill="#023047"/>
<path d="M367.294 467.873H493.741C520.253 467.873 545.68 478.405 564.427 497.152C583.173 515.899 593.705 541.325 593.705 567.837V694.243C593.705 708.112 599.215 721.413 609.022 731.22C618.829 741.027 632.13 746.537 645.999 746.537H820.117C833.986 746.537 847.287 741.027 857.094 731.22C866.901 721.413 872.411 708.112 872.411 694.243V520.167C872.411 506.298 866.901 492.997 857.094 483.19C847.287 473.383 833.986 467.873 820.117 467.873H693.669C667.157 467.873 641.731 457.341 622.984 438.595C604.237 419.848 593.705 394.421 593.705 367.909V241.504C593.705 227.635 588.196 214.334 578.389 204.527C568.582 194.719 555.281 189.21 541.411 189.21H367.294C353.425 189.21 340.124 194.719 330.317 204.527C320.51 214.334 315 227.635 315 241.504V415.579C315 429.448 320.51 442.75 330.317 452.557C340.124 462.364 353.425 467.873 367.294 467.873V467.873Z" fill="#023047"/>
<g filter="url(#filter0_b_559_91)">
<path d="M294.294 565.873H420.741C447.253 565.873 472.68 576.405 491.427 595.152C510.173 613.899 520.705 639.325 520.705 665.837V792.243C520.705 806.112 526.215 819.413 536.022 829.22C545.829 839.027 559.13 844.537 572.999 844.537H747.117C760.986 844.537 774.287 839.027 784.094 829.22C793.901 819.413 799.411 806.112 799.411 792.243V618.167C799.411 604.298 793.901 590.997 784.094 581.19C774.287 571.383 760.986 565.873 747.117 565.873H620.669C594.157 565.873 568.731 555.341 549.984 536.595C531.237 517.848 520.705 492.421 520.705 465.909V339.504C520.705 325.635 515.196 312.334 505.389 302.527C495.582 292.719 482.281 287.21 468.411 287.21H294.294C280.425 287.21 267.124 292.719 257.317 302.527C247.51 312.334 242 325.635 242 339.504V513.579C242 527.448 247.51 540.75 257.317 550.557C267.124 560.364 280.425 565.873 294.294 565.873V565.873Z" fill="url(#paint1_linear_559_91)"/>
<path d="M784.277 796.867H610.076C595.582 796.867 581.683 791.109 571.434 780.861C561.186 770.612 555.428 756.712 555.428 742.219V615.897C555.395 590.012 545.103 565.195 526.807 546.884C508.511 528.572 483.703 518.259 457.818 518.203H331.371C316.877 518.203 302.977 512.446 292.729 502.197C282.48 491.949 276.723 478.049 276.723 463.555V289.648C276.723 275.155 282.48 261.255 292.729 251.006C302.977 240.758 316.877 235 331.371 235H505.488C519.982 235 533.882 240.758 544.13 251.006C554.379 261.255 560.136 275.155 560.136 289.648V415.969C560.169 441.855 570.461 466.671 588.757 484.983C607.053 503.294 631.861 513.608 657.746 513.663H784.277C798.771 513.663 812.671 519.421 822.919 529.669C833.168 539.918 838.926 553.818 838.926 568.311V742.429C838.87 756.886 833.088 770.732 822.845 780.935C812.603 791.138 798.735 796.867 784.277 796.867ZM331.371 239.54C318.096 239.562 305.372 244.851 295.993 254.246C286.614 263.641 281.347 276.373 281.347 289.648V463.681C281.369 476.938 286.648 489.644 296.026 499.014C305.403 508.384 318.114 513.652 331.371 513.663H457.818C484.922 513.697 510.906 524.478 530.072 543.644C549.237 562.809 560.019 588.793 560.052 615.897V742.345C560.074 755.601 565.353 768.308 574.731 777.677C584.109 787.047 596.82 792.316 610.076 792.327H784.277C797.53 792.315 810.237 787.046 819.608 777.675C828.979 768.304 834.248 755.597 834.259 742.345V568.227C834.248 554.971 828.98 542.26 819.61 532.882C810.24 523.504 797.534 518.226 784.277 518.203H657.746C630.642 518.17 604.658 507.388 585.493 488.223C566.327 469.057 555.545 443.073 555.512 415.969V289.648C555.49 276.388 550.212 263.677 540.836 254.3C531.459 244.924 518.748 239.646 505.488 239.624L331.371 239.54Z" fill="url(#paint2_linear_559_91)"/>
</g>
<g style="mix-blend-mode:soft-light">
<path d="M329.294 517.873H455.741C482.253 517.873 507.68 528.405 526.427 547.152C545.173 565.899 555.705 591.325 555.705 617.837V744.243C555.705 758.112 561.215 771.413 571.022 781.22C580.829 791.027 594.13 796.537 607.999 796.537H782.117C795.986 796.537 809.287 791.027 819.094 781.22C828.901 771.413 834.411 758.112 834.411 744.243V570.167C834.411 556.298 828.901 542.997 819.094 533.19C809.287 523.383 795.986 517.873 782.117 517.873H655.669C629.157 517.873 603.731 507.341 584.984 488.595C566.237 469.848 555.705 444.421 555.705 417.909V291.504C555.705 277.635 550.196 264.334 540.389 254.527C530.582 244.719 517.281 239.21 503.411 239.21H329.294C315.425 239.21 302.124 244.719 292.317 254.527C282.51 264.334 277 277.635 277 291.504V465.579C277 479.448 282.51 492.75 292.317 502.557C302.124 512.364 315.425 517.873 329.294 517.873V517.873Z" fill="url(#paint3_linear_559_91)"/>
<path d="M819.277 748.867H645.076C630.582 748.867 616.683 743.109 606.434 732.861C596.186 722.612 590.428 708.712 590.428 694.219V567.897C590.395 542.012 580.103 517.195 561.807 498.884C543.511 480.572 518.703 470.259 492.818 470.203H366.371C351.877 470.203 337.977 464.446 327.729 454.197C317.48 443.949 311.723 430.049 311.723 415.555V241.648C311.723 227.155 317.48 213.255 327.729 203.006C337.977 192.758 351.877 187 366.371 187H540.488C554.982 187 568.882 192.758 579.13 203.006C589.379 213.255 595.136 227.155 595.136 241.648V367.969C595.169 393.855 605.461 418.671 623.757 436.983C642.053 455.294 666.861 465.608 692.746 465.663H819.277C833.771 465.663 847.671 471.421 857.919 481.669C868.168 491.918 873.926 505.818 873.926 520.311V694.429C873.87 708.886 868.088 722.732 857.845 732.935C847.603 743.138 833.735 748.867 819.277 748.867ZM366.371 191.54C353.096 191.562 340.372 196.851 330.993 206.246C321.614 215.641 316.347 228.373 316.347 241.648V415.681C316.369 428.938 321.648 441.644 331.026 451.014C340.403 460.384 353.114 465.652 366.371 465.663H492.818C519.922 465.697 545.906 476.478 565.072 495.644C584.237 514.809 595.019 540.793 595.052 567.897V694.345C595.074 707.601 600.353 720.308 609.731 729.677C619.109 739.047 631.82 744.316 645.076 744.327H819.277C832.53 744.315 845.237 739.046 854.608 729.675C863.979 720.304 869.248 707.597 869.259 694.345V520.227C869.248 506.971 863.98 494.26 854.61 484.882C845.24 475.504 832.534 470.226 819.277 470.203H692.746C665.642 470.17 639.658 459.388 620.493 440.223C601.327 421.057 590.545 395.073 590.512 367.969V241.648C590.49 228.388 585.212 215.677 575.836 206.3C566.459 196.924 553.748 191.646 540.488 191.624L366.371 191.54Z" fill="url(#paint4_linear_559_91)"/>
<g style="mix-blend-mode:soft-light">
<path d="M329.294 517.873H455.741C482.253 517.873 507.68 528.405 526.427 547.152C545.173 565.899 555.705 591.325 555.705 617.837V744.243C555.705 758.112 561.215 771.413 571.022 781.22C580.829 791.027 594.13 796.537 607.999 796.537H782.117C795.986 796.537 809.287 791.027 819.094 781.22C828.901 771.413 834.411 758.112 834.411 744.243V570.167C834.411 556.298 828.901 542.997 819.094 533.19C809.287 523.383 795.986 517.873 782.117 517.873H655.669C629.157 517.873 603.731 507.341 584.984 488.595C566.237 469.848 555.705 444.421 555.705 417.909V291.504C555.705 277.635 550.196 264.334 540.389 254.527C530.582 244.719 517.281 239.21 503.411 239.21H329.294C315.425 239.21 302.124 244.719 292.317 254.527C282.51 264.334 277 277.635 277 291.504V465.579C277 479.448 282.51 492.75 292.317 502.557C302.124 512.364 315.425 517.873 329.294 517.873V517.873Z" fill="url(#paint5_linear_559_91)"/>
<path d="M819.277 748.867H645.076C630.582 748.867 616.683 743.109 606.434 732.861C596.186 722.612 590.428 708.712 590.428 694.219V567.897C590.395 542.012 580.103 517.195 561.807 498.884C543.511 480.572 518.703 470.259 492.818 470.203H366.371C351.877 470.203 337.977 464.446 327.729 454.197C317.48 443.949 311.723 430.049 311.723 415.555V241.648C311.723 227.155 317.48 213.255 327.729 203.006C337.977 192.758 351.877 187 366.371 187H540.488C554.982 187 568.882 192.758 579.13 203.006C589.379 213.255 595.136 227.155 595.136 241.648V367.969C595.169 393.855 605.461 418.671 623.757 436.983C642.053 455.294 666.861 465.608 692.746 465.663H819.277C833.771 465.663 847.671 471.421 857.919 481.669C868.168 491.918 873.926 505.818 873.926 520.311V694.429C873.87 708.886 868.088 722.732 857.845 732.935C847.603 743.138 833.735 748.867 819.277 748.867ZM366.371 191.54C353.096 191.562 340.372 196.851 330.993 206.246C321.614 215.641 316.347 228.373 316.347 241.648V415.681C316.369 428.938 321.648 441.644 331.026 451.014C340.403 460.384 353.114 465.652 366.371 465.663H492.818C519.922 465.697 545.906 476.478 565.072 495.644C584.237 514.809 595.019 540.793 595.052 567.897V694.345C595.074 707.601 600.353 720.308 609.731 729.677C619.109 739.047 631.82 744.315 645.076 744.327H819.277C832.53 744.315 845.237 739.046 854.608 729.675C863.979 720.304 869.248 707.597 869.259 694.345V520.227C869.248 506.971 863.98 494.26 854.61 484.882C845.24 475.504 832.534 470.226 819.277 470.203H692.746C665.642 470.17 639.658 459.388 620.493 440.223C601.327 421.057 590.545 395.073 590.512 367.969V241.648C590.49 228.388 585.212 215.677 575.836 206.3C566.459 196.924 553.748 191.646 540.488 191.624L366.371 191.54Z" fill="url(#paint6_linear_559_91)"/>
<path d="M329.294 517.873H455.741C482.253 517.873 507.68 528.405 526.427 547.152C545.173 565.899 555.705 591.325 555.705 617.837V744.243C555.705 758.112 561.215 771.413 571.022 781.22C580.829 791.027 594.13 796.537 607.999 796.537H782.117C795.986 796.537 809.287 791.027 819.094 781.22C828.901 771.413 834.411 758.112 834.411 744.243V570.167C834.411 556.298 828.901 542.997 819.094 533.19C809.287 523.383 795.986 517.873 782.117 517.873H655.669C629.157 517.873 603.731 507.341 584.984 488.595C566.237 469.848 555.705 444.421 555.705 417.909V291.504C555.705 277.635 550.196 264.334 540.389 254.527C530.582 244.719 517.281 239.21 503.411 239.21H329.294C315.425 239.21 302.124 244.719 292.317 254.527C282.51 264.334 277 277.635 277 291.504V465.579C277 479.448 282.51 492.75 292.317 502.557C302.124 512.364 315.425 517.873 329.294 517.873V517.873Z" fill="url(#paint7_linear_559_91)"/>
<path d="M819.277 748.867H645.076C630.582 748.867 616.683 743.109 606.434 732.861C596.186 722.612 590.428 708.712 590.428 694.219V567.897C590.395 542.012 580.103 517.195 561.807 498.884C543.511 480.572 518.703 470.259 492.818 470.203H366.371C351.877 470.203 337.977 464.446 327.729 454.197C317.48 443.949 311.723 430.049 311.723 415.555V241.648C311.723 227.155 317.48 213.255 327.729 203.006C337.977 192.758 351.877 187 366.371 187H540.488C554.982 187 568.882 192.758 579.13 203.006C589.379 213.255 595.136 227.155 595.136 241.648V367.969C595.169 393.855 605.461 418.671 623.757 436.983C642.053 455.294 666.861 465.608 692.746 465.663H819.277C833.771 465.663 847.671 471.421 857.919 481.669C868.168 491.918 873.926 505.818 873.926 520.311V694.429C873.87 708.886 868.088 722.732 857.845 732.935C847.603 743.138 833.735 748.867 819.277 748.867ZM366.371 191.54C353.096 191.562 340.372 196.851 330.993 206.246C321.614 215.641 316.347 228.373 316.347 241.648V415.681C316.369 428.938 321.648 441.644 331.026 451.014C340.403 460.384 353.114 465.652 366.371 465.663H492.818C519.922 465.697 545.906 476.478 565.072 495.644C584.237 514.809 595.019 540.793 595.052 567.897V694.345C595.074 707.601 600.353 720.308 609.731 729.677C619.109 739.047 631.82 744.315 645.076 744.327H819.277C832.53 744.315 845.237 739.046 854.608 729.675C863.979 720.304 869.248 707.597 869.259 694.345V520.227C869.248 506.971 863.98 494.26 854.61 484.882C845.24 475.504 832.534 470.226 819.277 470.203H692.746C665.642 470.17 639.658 459.388 620.493 440.223C601.327 421.057 590.545 395.073 590.512 367.969V241.648C590.49 228.388 585.212 215.677 575.836 206.3C566.459 196.924 553.748 191.646 540.488 191.624L366.371 191.54Z" fill="url(#paint8_linear_559_91)"/>
</g>
</g>
<defs>
<filter id="filter0_b_559_91" x="238" y="231" width="604.925" height="617.537" filterUnits="userSpaceOnUse" color-interpolation-filters="sRGB">
<feFlood flood-opacity="0" result="BackgroundImageFix"/>
<feGaussianBlur in="BackgroundImageFix" stdDeviation="2"/>
<feComposite in2="SourceAlpha" operator="in" result="effect1_backgroundBlur_559_91"/>
<feBlend mode="normal" in="SourceGraphic" in2="effect1_backgroundBlur_559_91" result="shape"/>
</filter>
<linearGradient id="paint0_linear_559_91" x1="520.705" y1="287.21" x2="520.705" y2="844.537" gradientUnits="userSpaceOnUse">
<stop stop-color="#023047"/>
<stop offset="1" stop-color="#FFB703"/>
</linearGradient>
<linearGradient id="paint1_linear_559_91" x1="520.705" y1="287.21" x2="520.705" y2="844.537" gradientUnits="userSpaceOnUse">
<stop stop-color="#EE6D19"/>
<stop offset="1" stop-color="#FFB703"/>
</linearGradient>
<linearGradient id="paint2_linear_559_91" x1="557.824" y1="235" x2="557.824" y2="796.867" gradientUnits="userSpaceOnUse">
<stop stop-color="#EE6D19"/>
<stop offset="1" stop-color="#FFB703"/>
</linearGradient>
<linearGradient id="paint3_linear_559_91" x1="555.705" y1="239.21" x2="555.705" y2="796.537" gradientUnits="userSpaceOnUse">
<stop stop-color="#19D4EE"/>
<stop offset="1" stop-color="#219EBC"/>
</linearGradient>
<linearGradient id="paint4_linear_559_91" x1="592.824" y1="187" x2="592.824" y2="748.867" gradientUnits="userSpaceOnUse">
<stop stop-color="#19D4EE"/>
<stop offset="1" stop-color="#219EBC"/>
</linearGradient>
<linearGradient id="paint5_linear_559_91" x1="555.705" y1="239.21" x2="555.705" y2="796.537" gradientUnits="userSpaceOnUse">
<stop stop-color="#19D4EE"/>
<stop offset="1" stop-color="#219EBC"/>
</linearGradient>
<linearGradient id="paint6_linear_559_91" x1="592.824" y1="187" x2="592.824" y2="748.867" gradientUnits="userSpaceOnUse">
<stop stop-color="#19D4EE"/>
<stop offset="1" stop-color="#219EBC"/>
</linearGradient>
<linearGradient id="paint7_linear_559_91" x1="555.705" y1="239.21" x2="555.705" y2="796.537" gradientUnits="userSpaceOnUse">
<stop stop-color="#19D4EE"/>
<stop offset="1" stop-color="#219EBC"/>
</linearGradient>
<linearGradient id="paint8_linear_559_91" x1="592.824" y1="187" x2="592.824" y2="748.867" gradientUnits="userSpaceOnUse">
<stop stop-color="#19D4EE"/>
<stop offset="1" stop-color="#219EBC"/>
</linearGradient>
</defs>
</svg>
