<svg width="62" height="62" viewBox="0 0 62 62" fill="none" xmlns="http://www.w3.org/2000/svg">
<rect width="62" height="62" rx="16" fill="#219EBC"/>
<path d="M12.7162 17.8579L28.9588 34.6977C29.0745 34.8246 30.1181 35.9421 31.24 35.9421C32.3668 35.9421 33.4198 34.8661 33.533 34.7465L49.7644 17.857C49.9132 17.7024 49.9995 17.4688 49.9995 17.2214C49.9995 14.9773 48.5969 13.1516 46.8728 13.1516H15.6071C13.883 13.1516 12.4805 14.9773 12.4805 17.2214C12.4805 17.4696 12.5674 17.7032 12.7162 17.8579ZM16.8096 16.64H31.24H45.1894C46.1274 16.64 46.1514 17.0276 46.1514 17.2214L31.721 31.7562C31.4984 31.9889 31.2229 32.1438 31.2229 32.1438C31.2229 32.1438 31.0085 32.0102 30.7758 31.7562L15.8476 17.2214C15.8476 17.0276 15.8476 16.64 16.8096 16.64Z" fill="#023047"/>
<path d="M36.268 34.352C35.9966 34.0745 34.6321 33.999 34.4188 34.3523C34.2056 34.7056 34.1472 35.4508 34.4186 35.7284L38.8896 40.3796L43.36 44.6434C43.4745 44.7606 44.5003 44.7592 44.6354 44.7592C44.8205 44.7592 45.0043 44.6526 45.1275 44.4483C45.3407 44.0951 45.2938 43.5831 45.0224 43.3055L36.268 34.352Z" fill="#023047"/>
<path d="M26.8387 35.8588C27.1258 35.5934 27.0567 34.4095 26.6275 34.2661C26.1983 34.1227 25.3377 34.1574 25.0506 34.4228L20.2307 38.8042L15.8546 43.1409C15.7333 43.2529 15.8519 44.1363 15.8673 44.2527C15.8884 44.4121 16.0316 44.5583 16.2797 44.6411C16.7088 44.7845 17.2902 44.6857 17.5773 44.4203L26.8387 35.8588Z" fill="#023047"/>
<path d="M47.7647 24.0044C47.4196 24.0044 45.9765 24.3303 45.9765 24.7796V33.6549V44.779C45.9765 45.2827 45.2225 45.7097 44.1882 45.7097H31.2235H17.3647C16.4706 45.7097 15.5765 44.9345 15.5765 44.1593V24.7796C15.5765 24.3303 14.1334 24.0044 13.7882 24.0044C13.4431 24.0044 12 24.3303 12 24.7796V44.779C12 47.0231 13.4026 48.8488 15.1266 48.8488H46.3925C48.1164 48.8488 49.5191 47.0231 49.5191 44.779V33.6549V24.7796C49.519 24.3303 48.1099 24.0044 47.7647 24.0044Z" fill="#023047"/>
</svg>
