<svg id="Layer_1" data-name="Layer 1" xmlns="http://www.w3.org/2000/svg" xmlns:xlink="http://www.w3.org/1999/xlink"
  viewBox="0 0 250 123.33">
  <defs>
    <style>
      .cls-1 {
        fill: #dee0e0;
      }

      .cls-2 {
        fill: url(#SINF_Profile);
      }
    </style>
    <linearGradient id="SINF_Profile" x1="1052.58" y1="-497.85" x2="885.05" y2="-330.31"
      gradientTransform="matrix(1, 0, 0, -1, -834.96, -353.27)" gradientUnits="userSpaceOnUse">
      <stop offset="0" stop-color="#cdfffc" stop-opacity="0.8" />
      <stop offset="0.32" stop-color="#ffa000" />
      <stop offset="0.46" stop-color="#ff8214" />
      <stop offset="0.57" stop-color="#ff8451" />
      <stop offset="0.78" stop-color="#ff511f" />
      <stop offset="1" stop-color="#fc08bc" />
    </linearGradient>
  </defs>
  <title>404_numbers</title>
  <path class="cls-1"
    d="M83.69.13V98.44h-15a5,5,0,0,1-5-5V90.59h0v-32H53.92L31,58.94a4.78,4.78,0,0,1-4.74-4.8V43c0-1-.28-4.45-4.09-4.5a.44.44,0,0,1-.31-.08H16.15a5.06,5.06,0,0,1-5.05-5.07V9.45h0V3.67A3.54,3.54,0,0,1,14.64.13h13a3.53,3.53,0,0,1,3.53,3.53h0V9.45c.17,0,0,15.41.17,15.41v9.87a3.9,3.9,0,0,0,2.3,3.51h30V3.64A3.53,3.53,0,0,1,67.16.1h0Z"
    transform="translate(-0.04)" />
  <path class="cls-1"
    d="M250,.13V98.44H235a5,5,0,0,1-5-5V90.59h0v-32h-9.82l-22.88.35a4.78,4.78,0,0,1-4.74-4.8V43c0-1-.28-4.45-4.09-4.5a.44.44,0,0,1-.31-.08h-5.75a5.06,5.06,0,0,1-5-5.09V9.45h0V3.67A3.54,3.54,0,0,1,181,.13h13a3.53,3.53,0,0,1,3.53,3.53h0V9.45c.17,0,0,15.41.17,15.41v9.87a3.9,3.9,0,0,0,2.3,3.51h30V3.64A3.53,3.53,0,0,1,233.51.1h0Z"
    transform="translate(-0.04)" />
  <path class="cls-1"
    d="M159.31.13h-35.9L100.65,0A4.68,4.68,0,0,0,96,4.73l.22,24.89V93.18a5.15,5.15,0,0,0,5.15,5.15h58.48a4.57,4.57,0,0,0,4.58-4.56h0V5.28A5.16,5.16,0,0,0,159.31.13Zm-43.7,28.13.13-3c0-2.77-1.35-5.49-4.07-5.49l11.74-.34h21.71V79H115.61Z"
    transform="translate(-0.04)" />
  <path class="cls-2"
    d="M72.59,25v98.31H57.65a5,5,0,0,1-5-5v-2.85h0v-32H42.83L20,83.83A4.77,4.77,0,0,1,15.22,79h0V67.91c0-1-.29-4.45-4.1-4.51a.47.47,0,0,1-.31-.07H5a5.07,5.07,0,0,1-5-5.09V34.34H0V28.56A3.53,3.53,0,0,1,3.56,25h13a3.54,3.54,0,0,1,3.54,3.54v5.78c.16,0,0,15.41.17,15.41v9.9a3.87,3.87,0,0,0,2.29,3.51h30V28.56A3.54,3.54,0,0,1,56.11,25ZM222.4,25a3.54,3.54,0,0,0-3.54,3.54h0v34.6h-30a3.87,3.87,0,0,1-2.29-3.51V49.73c-.16,0,0-15.41-.17-15.41V28.54A3.54,3.54,0,0,0,182.86,25h-13a3.53,3.53,0,0,0-3.53,3.53h0v5.78h0v23.9a5.07,5.07,0,0,0,5,5.09h5.75a.47.47,0,0,0,.31.07c3.81.06,4.1,3.47,4.1,4.51V79a4.77,4.77,0,0,0,4.74,4.8h0l22.87-.35h9.82v32h0v2.8a5,5,0,0,0,4.95,5h15V25Zm-69,5.15v88.49a4.58,4.58,0,0,1-4.58,4.57H90.32a5.15,5.15,0,0,1-5.15-5.15h0V54.52L85,29.63a4.67,4.67,0,0,1,4.6-4.74h0l22.76.13h35.9a5.16,5.16,0,0,1,5.15,5.15Zm-48.86,73.72H134V44.36h-21.7l-11.75.34c2.72,0,4.07,2.72,4.07,5.49l-.13,3Z"
    transform="translate(-0.04)" />
</svg>