<svg id="Layer_1" data-name="Layer 1" xmlns="http://www.w3.org/2000/svg" viewBox="0 0 350 279.63"><defs><style>.cls-1{fill:#dee0e0;}</style></defs><title>404_face</title><path class="cls-1" d="M960.45,681.48h-155c-15.08,0-20.52-4.72-20.52-17.78q0-122.16,0-244.32c0-12.69,5.51-17.51,20.07-17.51H1115c14.73,0,20,4.58,20,17.43q0,122.47,0,245c0,12.5-5.33,17.2-19.54,17.21Q1037.94,681.52,960.45,681.48Zm3.6-209.6H835c-12.46,0-14.82,2-14.83,12.75q0,78.3,0,156.58c0,10.88,2.41,13,14.57,13h258c11.8,0,14.61-2.37,14.62-12.49q0-78.6,0-157.21c0-10.33-2.68-12.67-14.36-12.67Zm28.88-27.5c34.35,0,68.7,0,103-.07,2.41,0,6.71-.74,6.89-1.62a25.85,25.85,0,0,0-.11-11.74c-.3-1.09-5.41-1.59-8.31-1.6q-77.46-.14-154.92-.06c-16.82,0-33.63-.06-50.44.07-2.17,0-6.07.81-6.2,1.61-.65,3.88-.91,8,.14,11.76.3,1.08,5.41,1.58,8.31,1.59Q942.14,444.47,992.93,444.38Zm-169.64.14,3.33,0c2.22-2.72,5.79-5.26,6.34-8.22.75-4.08-2.65-7-7.77-7.28-4.71-.27-9.65,3.55-8.43,7.35C817.74,439.36,821,441.81,823.29,444.52Zm35.53-16.65-3.38.06c-2.13,2.76-5.51,5.33-6.08,8.32-.8,4.22,2.78,7.07,7.8,7.12,5.38,0,9.07-2.88,8.12-7.43C864.67,433,861.08,430.54,858.82,427.87Z" transform="translate(-784.96 -401.86)"/><path class="cls-1" d="M921.3,589.32V578h80c-.54,11.1-.24,22.28-1.89,33.18-1.34,8.9-9.06,12.43-20.89,11.72-9.17-.55-14.57-5.14-16-13.92a65.14,65.14,0,0,1-.49-9.17c-.19-12.34,1.26-10.35-10.79-10.48C941.49,589.23,931.76,589.32,921.3,589.32Zm69.33,8.87c-.11-9.36,1.26-8.7-8.65-8.74-2.34,0-4.76-.34-7,.17-1.3.29-3.14,1.87-3.25,3a56.35,56.35,0,0,0,0,11.32c.43,4.27,3.1,6.75,7.4,7.34C987.44,612.44,990.61,608.81,990.63,598.19Z" transform="translate(-784.96 -401.86)"/><path class="cls-1" d="M1006.24,521.92l10.87-13,7.75,9.16-13.14,11.12,13.56,11.16-9.35,8.72-10-13-13.44,12.72-7.25-8.77,13.25-10.2-14-11.78c3.24-3.27,5.55-5.62,8.85-9L1003.5,522Z" transform="translate(-784.96 -401.86)"/><path class="cls-1" d="M937.43,540.8l-9,8.89-10.53-13.76-13.78,13-7.2-8.11,13.64-11.28-15.27-11.33c4-3.81,6.28-6,9-8.58l12.35,11.75,12.61-11.82,6.87,9.11-13.4,9.95Z" transform="translate(-784.96 -401.86)"/></svg>