<svg width="250" height="124" viewBox="0 0 250 124" fill="none" xmlns="http://www.w3.org/2000/svg">
    <g clip-path="url(#clip0_606_2)">
        <path d="M83.6506 0.130098V98.4401H68.6506C67.9939 98.4401 67.3438 98.3108 66.7371 98.0595C66.1305 97.8082 65.5793 97.4399 65.115 96.9756C64.6507 96.5113 64.2824 95.9601 64.0312 95.3535C63.7799 94.7469 63.6506 94.0967 63.6506 93.4401V90.5901V58.5901H53.8806L30.9606 58.9401C29.6963 58.9295 28.4877 58.4185 27.5994 57.5189C26.711 56.6193 26.2152 55.4044 26.2206 54.1401V43.0001C26.2206 42.0001 25.9406 38.5501 22.1306 38.5001C22.0208 38.5133 21.9102 38.4847 21.8206 38.4201H16.1106C15.4461 38.4188 14.7883 38.2866 14.1749 38.0311C13.5615 37.7756 13.0045 37.4018 12.5355 36.931C12.0666 36.4602 11.695 35.9016 11.4419 35.2872C11.1888 34.6728 11.0592 34.0146 11.0606 33.3501V9.4501V3.6701C11.0606 3.20522 11.1521 2.74489 11.33 2.3154C11.5079 1.88591 11.7687 1.49566 12.0974 1.16694C12.4261 0.83822 12.8164 0.577466 13.2459 0.399564C13.6753 0.221662 14.1357 0.130098 14.6006 0.130098H27.6006C28.0641 0.130098 28.5232 0.221404 28.9514 0.398803C29.3797 0.576202 29.7689 0.83622 30.0966 1.16401C30.4244 1.4918 30.6845 1.88095 30.8619 2.30923C31.0392 2.7375 31.1306 3.19653 31.1306 3.6601V3.6601V9.4501C31.3006 9.4501 31.1306 24.8601 31.3006 24.8601V34.7301C31.3095 35.4735 31.5307 36.1989 31.9382 36.8208C32.3457 37.4427 32.9225 37.9351 33.6006 38.2401H63.6006V3.6401C63.5992 3.17653 63.6892 2.71724 63.8654 2.28846C64.0416 1.85968 64.3005 1.4698 64.6274 1.14108C64.9543 0.812358 65.3427 0.551238 65.7704 0.372626C66.1982 0.194014 66.657 0.101409 67.1206 0.100098V0.100098L83.6506 0.130098Z" fill="#002132"/>
        <path d="M249.959 0.130098V98.4401H234.959C234.303 98.4401 233.652 98.3108 233.046 98.0595C232.439 97.8082 231.888 97.4399 231.424 96.9756C230.959 96.5113 230.591 95.9601 230.34 95.3535C230.089 94.7469 229.959 94.0967 229.959 93.4401V90.5901V58.5901H220.139L197.259 58.9401C195.995 58.9295 194.786 58.4185 193.898 57.5189C193.01 56.6193 192.514 55.4044 192.519 54.1401V43.0001C192.519 42.0001 192.239 38.5501 188.429 38.5001C188.32 38.5133 188.209 38.4847 188.119 38.4201H182.369C181.032 38.4043 179.756 37.8601 178.819 36.9064C177.883 35.9526 177.361 34.667 177.369 33.3301V9.4501V3.6701C177.369 3.20098 177.462 2.73653 177.643 2.30375C177.824 1.87096 178.09 1.47848 178.424 1.14909C178.758 0.819714 179.154 0.560009 179.589 0.385077C180.024 0.210144 180.49 0.123472 180.959 0.130098H193.959C194.423 0.130098 194.882 0.221404 195.31 0.398803C195.738 0.576202 196.128 0.83622 196.455 1.16401C196.783 1.4918 197.043 1.88095 197.221 2.30923C197.398 2.7375 197.489 3.19653 197.489 3.6601V3.6601V9.4501C197.659 9.4501 197.489 24.8601 197.659 24.8601V34.7301C197.668 35.4735 197.889 36.1989 198.297 36.8208C198.704 37.4427 199.281 37.9351 199.959 38.2401H229.959V3.6401C229.957 2.70561 230.325 1.80819 230.983 1.1446C231.64 0.481005 232.535 0.105388 233.469 0.100098V0.100098L249.959 0.130098Z" fill="#002132"/>
        <path d="M159.269 0.13H123.369L100.609 0C99.993 0.00391533 99.3835 0.129517 98.8159 0.369595C98.2483 0.609673 97.7337 0.959499 97.3016 1.39899C96.8696 1.83848 96.5286 2.35898 96.2982 2.93061C96.0678 3.50224 95.9527 4.11374 95.9593 4.73L96.1793 29.62V93.18C96.1793 94.5459 96.7218 95.8558 97.6877 96.8216C98.6535 97.7874 99.9634 98.33 101.329 98.33H159.809C160.409 98.3313 161.004 98.2144 161.559 97.986C162.114 97.7575 162.618 97.422 163.044 96.9986C163.469 96.5751 163.807 96.0721 164.038 95.5181C164.268 94.9641 164.388 94.3701 164.389 93.77V93.77V5.28C164.387 3.92012 163.847 2.61624 162.889 1.65185C161.93 0.687459 160.629 0.140539 159.269 0.13V0.13ZM115.569 28.26L115.699 25.26C115.699 22.49 114.349 19.77 111.629 19.77L123.369 19.43H145.079V79H115.569V28.26Z" fill="#002132"/>
        <path d="M72.5491 25.0001V123.31H57.6091C56.283 123.31 55.0113 122.783 54.0736 121.846C53.1359 120.908 52.6091 119.636 52.6091 118.31V115.46V83.4601H42.7891L19.9591 83.8301C19.3268 83.8315 18.7005 83.7072 18.1167 83.4643C17.5328 83.2214 17.0031 82.8649 16.5583 82.4155C16.1135 81.966 15.7626 81.4326 15.5258 80.8463C15.289 80.26 15.1712 79.6324 15.1791 79.0001V79.0001V67.9101C15.1791 66.9101 14.8891 63.4601 11.0791 63.4001C10.9708 63.4135 10.8612 63.3888 10.7691 63.3301H4.95911C3.62316 63.3117 2.34849 62.7667 1.41221 61.8135C0.475922 60.8604 -0.0462848 59.5762 -0.040887 58.2401V34.3401V28.5601C-0.0448869 28.0915 0.0444642 27.6268 0.221954 27.1931C0.399445 26.7593 0.661521 26.3653 0.992898 26.0339C1.32427 25.7025 1.71832 25.4405 2.15204 25.263C2.58577 25.0855 3.05049 24.9961 3.51911 25.0001H16.5191C17.458 25.0001 18.3584 25.3731 19.0223 26.037C19.6861 26.7009 20.0591 27.6013 20.0591 28.5401V34.3201C20.2191 34.3201 20.0591 49.7301 20.2291 49.7301V59.6301C20.2335 60.3733 20.4518 61.0995 20.8579 61.722C21.2639 62.3444 21.8407 62.8367 22.5191 63.1401H52.5191V28.5601C52.5165 28.0927 52.6064 27.6294 52.7838 27.197C52.9611 26.7645 53.2223 26.3715 53.5524 26.0405C53.8824 25.7095 54.2747 25.4472 54.7067 25.2686C55.1387 25.0901 55.6017 24.9988 56.0691 25.0001H72.5491ZM222.359 25.0001C221.42 25.0001 220.52 25.3731 219.856 26.037C219.192 26.7009 218.819 27.6013 218.819 28.5401V28.5401V63.1401H188.819C188.141 62.8367 187.564 62.3444 187.158 61.722C186.752 61.0995 186.533 60.3733 186.529 59.6301V49.7301C186.369 49.7301 186.529 34.3201 186.359 34.3201V28.5401C186.359 27.6013 185.986 26.7009 185.322 26.037C184.658 25.3731 183.758 25.0001 182.819 25.0001H169.819C168.883 25.0001 167.985 25.372 167.323 26.034C166.661 26.6961 166.289 27.5939 166.289 28.5301V28.5301V34.3101V58.2101C166.284 59.5462 166.806 60.8304 167.742 61.7835C168.678 62.7367 169.953 63.2817 171.289 63.3001H177.039C177.131 63.3588 177.241 63.3835 177.349 63.3701C181.159 63.4301 181.449 66.8401 181.449 67.8801V79.0001C181.445 79.6265 181.565 80.2476 181.801 80.8278C182.037 81.4081 182.385 81.9361 182.825 82.3819C183.265 82.8276 183.789 83.1822 184.366 83.4256C184.943 83.6689 185.563 83.7962 186.189 83.8001L209.059 83.4501H218.879V115.45V118.25C218.879 119.568 219.399 120.832 220.326 121.768C221.253 122.704 222.512 123.237 223.829 123.25H238.829V25.0001H222.359ZM153.359 30.1501V118.64C153.356 119.853 152.873 121.015 152.014 121.872C151.155 122.729 149.992 123.21 148.779 123.21H90.2791C88.9132 123.21 87.6033 122.668 86.6375 121.702C85.6717 120.736 85.1291 119.426 85.1291 118.06V118.06V54.5201L84.9591 29.6301C84.9499 29.0168 85.0615 28.4077 85.2877 27.8376C85.5138 27.2675 85.8501 26.7475 86.2773 26.3073C86.7044 25.8671 87.2141 25.5154 87.7772 25.2723C88.3403 25.0291 88.9458 24.8993 89.5591 24.8901V24.8901L112.319 25.0201H148.219C149.584 25.0228 150.893 25.5662 151.858 26.5315C152.823 27.4967 153.366 28.8051 153.369 30.1701L153.359 30.1501ZM104.499 103.87H133.959V44.3601H112.259L100.509 44.7001C103.229 44.7001 104.579 47.4201 104.579 50.1901L104.449 53.1901L104.499 103.87Z" fill="url(#paint0_linear_606_2)"/>
    </g>
    <defs>
        <linearGradient id="paint0_linear_606_2" x1="217.579" y1="144.58" x2="50.0491" y2="-22.9599" gradientUnits="userSpaceOnUse">
            <stop stop-color="#219EBC"/>
            <stop offset="0.5" stop-color="#FFB703"/>
            <stop offset="1" stop-color="#FB8500"/>
        </linearGradient>
        <clipPath id="clip0_606_2">
            <rect width="250" height="123.33" fill="white"/>
        </clipPath>
    </defs>
</svg>
