<svg width="397" height="396" viewBox="0 0 397 396" fill="none" xmlns="http://www.w3.org/2000/svg">
<g clip-path="url(#clip0_466_1565)">
<path d="M299.865 358.9C298.836 357.126 297.144 355.833 295.162 355.305C293.18 354.777 291.069 355.058 289.294 356.085L289.003 356.253C287.23 357.282 285.938 358.973 285.412 360.954C284.885 362.935 285.167 365.044 286.196 366.817C287.224 368.59 288.915 369.882 290.896 370.409C292.878 370.935 294.987 370.653 296.76 369.624L297.05 369.456C298.82 368.427 300.11 366.738 300.638 364.759C301.165 362.781 300.888 360.674 299.865 358.9V358.9Z" fill="#023047"/>
<path d="M369.476 99.0612C349.891 65.1602 320.694 37.8275 285.576 20.5191C250.458 3.21067 210.996 -3.29629 172.181 1.82095C133.365 6.9382 96.9381 23.4498 67.5058 49.2682C38.0735 75.0866 16.9576 109.052 6.8277 146.871C-6.07747 195.117 -0.271806 246.459 23.0811 290.606C46.4341 334.753 85.6088 368.442 132.754 384.923C176.95 400.376 225.193 399.666 268.915 382.919C270.762 382.134 272.232 380.663 273.015 378.816C273.798 376.968 273.833 374.889 273.113 373.016C272.393 371.144 270.973 369.624 269.154 368.777C267.335 367.93 265.259 367.822 263.362 368.477C234.648 379.626 203.567 383.276 173.052 379.081C142.537 374.887 113.593 362.987 88.9529 344.503L95.868 308.321L99.2032 307.235C105.251 305.238 110.261 300.925 113.137 295.242C116.013 289.559 116.52 282.969 114.548 276.912L112.1 269.37C111.536 267.64 111.536 265.776 112.1 264.046C113.163 260.805 113.525 257.376 113.161 253.985C112.798 250.593 111.717 247.318 109.991 244.377C108.265 241.436 105.933 238.895 103.15 236.923C100.367 234.952 97.1961 233.595 93.8486 232.943L76.3924 229.485L42.7345 203.875C41.7383 203.118 40.5741 202.613 39.3409 202.403C38.1077 202.192 36.8419 202.283 35.6511 202.666L15.9153 209.138C15.5063 202.101 15.5063 195.046 15.9153 188.01C16.6803 188.729 17.1851 189.234 17.4452 189.54C17.8396 190.186 18.3238 190.773 18.8833 191.284C19.6921 192.055 20.6568 192.644 21.7125 193.011C22.7681 193.378 23.8902 193.514 25.0029 193.41C29.6508 193.192 34.2803 192.681 38.8639 191.88C45.3965 190.917 51.868 189.83 51.9445 189.815C53.2212 189.596 54.4224 189.06 55.4383 188.256C56.4541 187.453 57.252 186.407 57.759 185.215C58.2659 184.023 58.4656 182.723 58.3399 181.434C58.2141 180.144 57.7669 178.907 57.0391 177.836L47.569 163.929L61.2004 154.184C62.1077 153.543 62.8647 152.713 63.4188 151.751L84.4856 115.033L92.9612 105.854C97.2147 101.285 100.069 95.5923 101.186 89.4507C102.304 83.309 101.637 76.9758 99.2644 71.2017C96.4102 64.3366 91.4844 58.5336 85.174 54.6022C116.774 29.7209 155.721 15.998 195.939 15.5744L182.17 32.8929L130.918 50.8999C129.888 51.2553 128.945 51.8268 128.154 52.5762C127.362 53.3255 126.74 54.2354 126.328 55.2448L112.009 89.8971C111.512 91.1114 111.331 92.4318 111.484 93.7348C111.636 95.0378 112.117 96.2809 112.881 97.3477L133.764 126.615C130.25 130.171 127.103 134.072 124.37 138.257C122.84 140.43 121.417 142.48 120.423 143.627L117.807 146.549C113.309 151.598 108.627 156.815 105.369 163.807C101.796 171.208 100.266 179.429 100.938 187.62C101.611 195.811 104.461 203.673 109.193 210.392C113.8 216.755 120.046 221.749 127.266 224.841C134.487 227.934 142.411 229.011 150.195 227.955C152.744 227.608 155.269 227.097 157.753 226.426C164.377 224.789 166.488 224.62 168.6 226.609C169.64 227.573 169.732 227.757 169.701 231.046C169.601 233.615 169.832 236.186 170.39 238.695C171.604 242.774 173.861 246.465 176.938 249.405C178.028 250.467 178.969 251.671 179.737 252.985C182.155 258.752 181.099 261.965 178.789 268.987C178.605 269.584 178.391 270.196 178.192 270.823C174.704 281.64 179.569 292.38 183.868 301.85C185.26 304.91 186.591 307.832 187.448 310.387C194.394 331.025 199.611 335.752 203.787 337.649C205.909 338.619 208.217 339.115 210.55 339.103C221.687 339.103 233.33 328.745 238.669 322.182C241.222 318.912 242.873 315.03 243.458 310.922C243.626 309.729 243.961 308.565 244.452 307.465C245.19 306.294 246.046 305.202 247.007 304.206C249.887 301.23 252.048 297.635 253.326 293.695C254.58 289.702 255.513 288.708 258.558 285.449L260.271 283.629C270.568 272.414 267.921 263.862 265.121 254.79C262.75 247.14 266.881 242.291 276.886 232.974C281.433 229.018 285.537 224.581 289.125 219.74C290.655 217.552 295.245 210.866 292.399 204.242C289.554 197.618 282.486 196.592 276.779 195.797C274.471 195.596 272.201 195.081 270.032 194.267C265.228 191.207 262.383 184.613 259.476 178.31C258.91 177.056 258.359 175.816 257.793 174.592C256.783 172.451 255.773 169.85 254.733 167.111C251.918 159.814 248.721 151.567 243.305 145.815C238.424 140.644 229.23 138.165 221.106 135.947C218.367 135.213 215.797 134.509 214.084 133.882C212.665 133.353 211.12 133.257 209.647 133.606C206.677 134.112 203.859 135.278 201.401 137.018C200.194 138.014 199.248 139.291 198.647 140.736C195.481 139.066 192.416 137.212 189.467 135.182L189.314 135.09C189.972 132.603 189.728 129.964 188.626 127.64C184.312 118.46 169.977 119.225 167.207 119.455C165.677 119.577 163.582 119.654 161.424 119.73C158.043 119.837 154.31 119.975 150.623 120.388L150.807 119.868C152.182 116.046 154.701 112.742 158.022 110.404C161.343 108.066 165.303 106.808 169.365 106.802C177.718 110.153 189.712 118.812 198.004 122.193C214.374 123.371 227.072 119.302 243.442 120.48L254.228 130.776V136.161C254.239 137.408 254.543 138.634 255.116 139.741L275.142 178.065C276.009 179.735 277.456 181.031 279.211 181.71C280.966 182.389 282.908 182.404 284.673 181.752L290.487 179.595C304.117 174.553 316.5 166.632 326.792 156.371C328.051 155.107 328.835 153.446 329.01 151.67C329.186 149.894 328.743 148.112 327.755 146.626L327.342 146.014H331.045C331.625 146.001 332.201 146.118 332.73 146.357C333.26 146.595 333.729 146.948 334.104 147.391L343.636 158.544C343.944 158.899 344.182 159.309 344.34 159.752L354.865 188.668C355.291 189.904 356.027 191.011 357.003 191.883C357.978 192.754 359.161 193.36 360.438 193.644C361.715 193.928 363.043 193.88 364.296 193.504C365.549 193.128 366.684 192.438 367.594 191.498L372.612 186.495C375.782 183.285 377.992 179.252 378.992 174.853C386.733 236.905 362.408 301.07 311.003 341.413C309.38 342.679 308.326 344.538 308.074 346.581C307.821 348.623 308.391 350.683 309.657 352.306C310.923 353.929 312.781 354.983 314.824 355.235C316.867 355.488 318.927 354.918 320.55 353.652C357.952 324.193 383.487 282.244 392.479 235.49C401.47 188.735 393.314 140.307 369.506 99.0765L369.476 99.0612ZM36.569 218.684L68.4675 242.933C69.4053 243.658 70.5008 244.15 71.665 244.371L90.8806 248.135C92.0783 248.367 93.213 248.852 94.2091 249.556C95.2052 250.261 96.0399 251.169 96.6579 252.221C97.2758 253.273 97.6627 254.445 97.793 255.658C97.9232 256.871 97.7937 258.098 97.4132 259.257C95.8237 264.108 95.8237 269.339 97.4132 274.189L99.8611 281.716C100.561 283.885 100.372 286.243 99.337 288.273C98.3019 290.303 96.5044 291.84 94.3381 292.548L86.6886 295.042C85.3679 295.462 84.1863 296.234 83.2701 297.274C82.3539 298.314 81.7376 299.584 81.4869 300.947L75.3673 333.243C61.4668 320.477 49.6004 305.659 40.1796 289.305C28.6316 269.458 20.9485 247.603 17.537 224.896L36.569 218.684ZM81.6552 95.3282L72.5676 105.074C72.1572 105.511 71.7979 105.993 71.4967 106.512L50.843 142.587L32.4842 155.698C30.8259 156.878 29.6987 158.663 29.3465 160.667C28.9944 162.671 29.4455 164.733 30.6024 166.407L37.4717 176.49C33.5092 177.071 29.9598 177.56 27.5885 177.821L26.1657 176.49C24.3298 174.776 21.7596 172.497 17.9501 169.161C24.2902 129.628 43.4295 93.2684 72.4299 65.6634C75.228 66.5436 77.7995 68.0255 79.9641 70.0051C82.1286 71.9846 83.8338 74.4139 84.9598 77.1224C86.2092 80.155 86.562 83.4825 85.9762 86.7097C85.3904 89.9369 83.8907 92.9282 81.6552 95.3282V95.3282ZM162.021 135.106C164.346 135.029 166.611 134.953 168.554 134.769C169.648 134.675 170.749 134.675 171.843 134.769C171.163 136.532 171.15 138.483 171.806 140.254C172.463 142.026 173.743 143.498 175.408 144.392C176.861 145.157 178.865 146.519 181.007 147.926C187.05 151.95 193.904 156.524 200.33 156.937C202.3 157.067 204.274 156.739 206.097 155.98C207.92 155.221 209.544 154.051 210.84 152.562C210.944 152.442 211.057 152.329 211.177 152.225C212.028 151.521 212.735 150.659 213.257 149.686L217.128 150.741C221.718 151.981 230.224 154.291 232.121 156.295C235.456 159.829 238.072 166.576 240.367 172.542C241.53 175.602 242.632 178.387 243.856 181.018C244.391 182.15 244.911 183.313 245.385 184.491C248.95 192.446 253.035 201.473 261.572 207.088C265.473 209.627 270.231 210.362 274.454 211.004L276.136 211.264C273.196 214.995 269.907 218.437 266.315 221.545C256.737 230.465 244.896 241.572 250.296 259.273C252.897 267.626 253.02 268.452 248.843 273.042L247.313 274.74C243.203 278.597 240.189 283.475 238.577 288.876C237.952 290.754 236.869 292.447 235.426 293.802C233.787 295.554 232.336 297.472 231.096 299.524C229.698 302.087 228.751 304.871 228.296 307.755C228.174 309.402 227.614 310.986 226.675 312.345C223.861 315.677 220.578 318.584 216.929 320.974C213.303 323.284 211.177 323.605 210.442 323.559C209.616 322.672 206.618 318.801 202.104 305.399C200.988 302.095 199.442 298.683 197.958 295.394C194.654 288.142 191.257 280.645 192.91 275.505C193.109 274.908 193.308 274.312 193.491 273.73C196.138 265.668 198.632 258.049 194.011 246.957C192.625 243.972 190.718 241.258 188.381 238.94C187.179 237.808 186.181 236.478 185.429 235.008C185.193 233.717 185.111 232.402 185.184 231.092C185.184 227.053 185.184 220.949 179.171 215.273C170.619 207.256 160.629 209.719 154.035 211.356C152.185 211.899 150.305 212.334 148.405 212.656C137.543 213.926 127.828 209.826 121.785 201.396C118.647 196.922 116.765 191.688 116.335 186.24C115.904 180.792 116.941 175.328 119.337 170.416C121.677 165.444 125.242 161.451 129.342 156.83C130.245 155.821 131.148 154.796 132.05 153.771C133.58 152.042 135.232 149.686 136.977 147.192C139.088 144.224 142.989 138.67 144.626 137.615C148.16 135.656 156.177 135.366 162.021 135.167V135.106ZM371.036 153.939C368.916 155.834 367.209 158.146 366.025 160.731C364.84 163.317 364.202 166.119 364.152 168.962V169.146L358.797 154.459C358.008 152.272 356.832 150.246 355.324 148.477L345.762 137.385C343.943 135.251 341.682 133.537 339.136 132.362C336.59 131.186 333.819 130.578 331.014 130.577H319.341C317.312 130.576 315.32 131.125 313.579 132.168C311.838 133.21 310.413 134.706 309.456 136.496C308.499 138.285 308.047 140.301 308.147 142.328C308.247 144.355 308.896 146.316 310.024 148.003L311.202 149.762C303.633 156.265 294.987 161.396 285.652 164.923L269.68 134.325V127.471C269.68 126.426 269.468 125.391 269.058 124.428C268.648 123.466 268.048 122.597 267.294 121.872L252.882 108.103C252.097 107.335 251.151 106.749 250.113 106.389L236.757 105.38C233.819 104.355 205.822 107.476 200.36 106.619C194.899 105.762 181.665 92.2225 173.786 91.3199H169.38C163.39 91.3368 157.503 92.8778 152.273 95.7979C147.043 98.7179 142.643 102.921 139.486 108.011L127.935 91.7942L139.287 64.2559L189.33 46.7079C190.669 46.2566 191.86 45.4471 192.772 44.3672L215.017 16.4464C244.034 19.1546 271.98 28.7741 296.515 44.4997C321.051 60.2253 341.464 81.5994 356.043 106.833C364.054 120.716 370.177 135.606 374.249 151.108L371.036 153.939Z" fill="#023047"/>
<path d="M81.6544 95.3282L72.5667 105.074C72.1563 105.511 71.797 105.993 71.4958 106.512L50.8421 142.587L32.4833 155.698C30.825 156.878 29.6978 158.663 29.3457 160.667C28.9935 162.671 29.4447 164.733 30.6015 166.407L37.4708 176.49C33.5083 177.071 29.959 177.56 27.5876 177.821L26.1648 176.49C24.3289 174.776 21.7587 172.497 17.9492 169.161C24.2893 129.628 43.4286 93.2684 72.4291 65.6634C75.2271 66.5436 77.7986 68.0255 79.9632 70.0051C82.1278 71.9846 83.8329 74.4139 84.959 77.1224C86.2084 80.155 86.5611 83.4825 85.9753 86.7097C85.3896 89.9369 83.8899 92.9281 81.6544 95.3282V95.3282Z" fill="url(#paint0_linear_466_1565)"/>
<path d="M94.3076 292.548L86.6581 295.042C85.3374 295.462 84.1558 296.234 83.2396 297.274C82.3234 298.314 81.7071 299.584 81.4564 300.947L75.3368 333.243C61.4363 320.477 49.5699 305.659 40.1491 289.305C28.6118 269.456 20.9392 247.601 17.5371 224.896L36.5691 218.7L68.4676 242.949C69.4053 243.673 70.5009 244.166 71.6651 244.387L90.8806 248.15C92.0784 248.382 93.2131 248.867 94.2092 249.571C95.2053 250.276 96.04 251.185 96.658 252.237C97.2759 253.289 97.6628 254.46 97.793 255.673C97.9233 256.886 97.7938 258.113 97.4133 259.273C95.8238 264.123 95.8238 269.354 97.4133 274.204L99.8612 281.732C100.555 283.902 100.36 286.26 99.3188 288.287C98.2779 290.314 96.4759 291.846 94.3076 292.548V292.548Z" fill="url(#paint1_linear_466_1565)"/>
<path d="M276.183 211.387C273.242 215.117 269.953 218.56 266.361 221.668C256.784 230.587 244.942 241.694 250.343 259.395C252.944 267.748 253.066 268.574 248.889 273.164L247.36 274.862C243.25 278.72 240.236 283.597 238.624 288.999C237.998 290.877 236.915 292.57 235.472 293.925C233.834 295.676 232.383 297.594 231.143 299.647C229.744 302.209 228.797 304.994 228.343 307.878C228.22 309.524 227.66 311.109 226.721 312.467C223.907 315.8 220.624 318.706 216.976 321.096C213.35 323.406 211.223 323.727 210.489 323.681C209.663 322.794 206.664 318.923 202.151 305.522C201.034 302.217 199.489 298.805 198.005 295.516C194.7 288.264 191.304 280.768 192.956 275.627C193.155 275.031 193.354 274.434 193.538 273.853C196.184 265.79 198.678 258.171 194.058 247.079C192.671 244.094 190.765 241.38 188.428 239.063C187.226 237.93 186.227 236.6 185.475 235.131C185.24 233.839 185.157 232.525 185.23 231.214C185.23 227.175 185.23 221.071 179.218 215.395C170.666 207.378 160.675 209.841 154.081 211.478C152.214 211.982 150.319 212.376 148.405 212.656C137.543 213.926 127.828 209.826 121.785 201.396C118.648 196.922 116.766 191.688 116.335 186.24C115.905 180.792 116.941 175.328 119.337 170.416C121.678 165.444 125.243 161.451 129.343 156.83C130.246 155.821 131.148 154.796 132.051 153.77C133.581 152.042 135.233 149.686 136.977 147.192C139.088 144.224 142.99 138.67 144.627 137.615C148.084 135.687 156.086 135.396 161.945 135.197C164.271 135.121 166.535 135.044 168.478 134.861C169.572 134.767 170.673 134.767 171.767 134.861C171.087 136.624 171.074 138.574 171.731 140.346C172.387 142.118 173.667 143.589 175.332 144.484C176.785 145.249 178.789 146.611 180.931 148.018C186.974 152.042 193.828 156.616 200.254 157.029C202.224 157.159 204.198 156.831 206.021 156.072C207.845 155.313 209.468 154.143 210.764 152.654C210.868 152.534 210.981 152.421 211.101 152.317C211.952 151.613 212.659 150.751 213.182 149.777L217.052 150.833C221.642 152.072 230.148 154.382 232.045 156.387C235.38 159.921 237.997 166.668 240.291 172.634C241.454 175.694 242.556 178.478 243.78 181.11C244.315 182.242 244.835 183.405 245.31 184.583C248.874 192.538 252.959 201.565 261.496 207.179C265.397 209.719 270.155 210.453 274.378 211.096L276.183 211.387Z" fill="url(#paint2_linear_466_1565)"/>
<path d="M374.311 151.063L371.037 153.985C368.916 155.879 367.21 158.192 366.025 160.777C364.841 163.363 364.203 166.165 364.153 169.008V169.192L358.798 154.505C358.009 152.318 356.833 150.292 355.325 148.523L345.763 137.385C343.944 135.251 341.683 133.537 339.136 132.362C336.59 131.186 333.819 130.578 331.015 130.577H319.342C317.312 130.576 315.321 131.125 313.58 132.168C311.839 133.21 310.414 134.706 309.457 136.496C308.5 138.285 308.048 140.301 308.148 142.328C308.247 144.355 308.896 146.316 310.025 148.003L311.203 149.762C303.634 156.265 294.988 161.396 285.653 164.924L269.681 134.325V127.472C269.68 126.426 269.469 125.391 269.059 124.428C268.649 123.466 268.049 122.597 267.294 121.872L252.883 108.103C252.097 107.335 251.152 106.749 250.114 106.389L236.758 105.38C233.82 104.355 205.823 107.476 200.361 106.619C194.899 105.762 181.666 92.2225 173.787 91.3199H169.381C163.391 91.3368 157.504 92.8778 152.274 95.7979C147.044 98.7179 142.643 102.921 139.486 108.011L127.936 91.7942L139.287 64.2559L189.331 46.7079C190.67 46.2566 191.861 45.4471 192.773 44.3672L215.018 16.4465C244.034 19.1547 271.98 28.7741 296.516 44.4997C321.052 60.2253 341.464 81.5994 356.044 106.833C364.073 120.699 370.216 135.573 374.311 151.063V151.063Z" fill="url(#paint3_linear_466_1565)"/>
<path d="M317.138 266.203L313.42 252.174C313.019 250.68 312.18 249.34 311.01 248.327C309.841 247.315 308.394 246.676 306.858 246.493C305.322 246.311 303.766 246.592 302.392 247.302C301.017 248.012 299.887 249.117 299.146 250.476C298.29 252.006 297.617 253.704 296.806 255.295C295.809 257.786 294.509 260.144 292.935 262.317C291.558 263.452 290.008 264.361 288.345 265.01C283.893 267.167 277.789 270.104 275.464 277.524C274.405 281.064 274.227 284.808 274.943 288.433C275.396 289.94 275.331 291.556 274.76 293.022L274.683 293.191C272.22 298.974 267.63 309.713 274.056 318.878C278.646 325.41 283.465 327.078 287.198 327.078C287.889 327.078 288.58 327.027 289.263 326.925C297.158 325.64 303.032 317.424 307.928 301.1L317.016 270.502C317.467 269.11 317.509 267.618 317.138 266.203V266.203ZM293.149 296.801C290.686 305.124 288.56 309.04 287.228 310.739L286.754 310.111C285.224 308 287.489 302.814 288.942 299.402L289.018 299.218C290.738 295.152 291.181 290.66 290.288 286.337C289.954 285.021 289.954 283.643 290.288 282.328C290.594 281.349 292.415 280.431 295.138 279.1C296.347 278.519 297.693 277.876 299.024 277.096L293.149 296.801Z" fill="#023047"/>
<path d="M298.993 277.004L293.149 296.801C290.686 305.124 288.559 309.04 287.228 310.739L286.754 310.111C285.224 308 287.488 302.814 288.942 299.402L289.018 299.218C290.738 295.152 291.181 290.66 290.288 286.337C289.954 285.021 289.954 283.643 290.288 282.328C290.594 281.349 292.415 280.431 295.138 279.1C296.331 278.442 297.662 277.769 298.993 277.004Z" fill="url(#paint4_linear_466_1565)"/>
</g>
<defs>
<linearGradient id="paint0_linear_466_1565" x1="52.1" y1="65.6634" x2="52.1" y2="177.821" gradientUnits="userSpaceOnUse">
<stop stop-color="#FB8500"/>
<stop offset="1" stop-color="#FFB703"/>
</linearGradient>
<linearGradient id="paint1_linear_466_1565" x1="58.9034" y1="218.7" x2="58.9034" y2="333.243" gradientUnits="userSpaceOnUse">
<stop stop-color="#FB8500"/>
<stop offset="1" stop-color="#FFB703"/>
</linearGradient>
<linearGradient id="paint2_linear_466_1565" x1="196.212" y1="134.79" x2="196.212" y2="323.685" gradientUnits="userSpaceOnUse">
<stop stop-color="#FB8500"/>
<stop offset="1" stop-color="#FFB703"/>
</linearGradient>
<linearGradient id="paint3_linear_466_1565" x1="251.123" y1="16.4465" x2="251.123" y2="169.192" gradientUnits="userSpaceOnUse">
<stop stop-color="#FB8500"/>
<stop offset="1" stop-color="#FFB703"/>
</linearGradient>
<linearGradient id="paint4_linear_466_1565" x1="292.619" y1="277.004" x2="292.619" y2="310.739" gradientUnits="userSpaceOnUse">
<stop stop-color="#FB8500"/>
<stop offset="1" stop-color="#FFB703"/>
</linearGradient>
<clipPath id="clip0_466_1565">
<rect width="396" height="396" fill="white" transform="translate(0.00390625)"/>
</clipPath>
</defs>
</svg>
