<svg xmlns="http://www.w3.org/2000/svg" viewBox="0 0 258.84 258.84">
  <defs>
    <style>
      .cls-1 {
        fill: #0b2f46;
      }

      .cls-2 {
        fill: #cdfffc;
      }
    </style>
  </defs>
  <title>Ativo 3</title>
  <g id="Camada_2" data-name="Camada 2">
    <g id="Layer_1" data-name="Layer 1">
      <g id="Painel">
        <path class="cls-1"
          d="M196,234.59a5.06,5.06,0,0,0-6.91-1.84l-.19.11a5.05,5.05,0,1,0,5.07,8.74l.19-.11A5.06,5.06,0,0,0,196,234.59Z" />
        <path class="cls-1"
          d="M241.5,64.75A129.4,129.4,0,0,0,4.46,96,129.41,129.41,0,0,0,86.77,251.6a129.41,129.41,0,0,0,89-1.31,5.06,5.06,0,0,0-3.63-9.44,118.5,118.5,0,0,1-114-15.67l4.52-23.65,2.18-.71A15.74,15.74,0,0,0,74.87,181l-1.6-4.93a5.61,5.61,0,0,1,0-3.48,15.72,15.72,0,0,0-11.93-20.33L49.93,150l-22-16.74a5.08,5.08,0,0,0-4.63-.79L10.4,136.7a119,119,0,0,1,0-13.81c.5.47.83.8,1,1a5.23,5.23,0,0,0,.94,1.14,5.11,5.11,0,0,0,4,1.39,72.41,72.41,0,0,0,9.06-1c4.27-.63,8.5-1.34,8.55-1.35a5.06,5.06,0,0,0,3.33-7.83l-6.19-9.09L40,100.78a5,5,0,0,0,1.45-1.59l13.77-24,5.54-6a21.34,21.34,0,0,0,4.12-22.65,23.34,23.34,0,0,0-9.21-10.85,119.06,119.06,0,0,1,72.4-25.51l-9,11.32L85.57,33.27a5,5,0,0,0-3,2.84L73.21,58.76a5.07,5.07,0,0,0,.57,4.87L87.43,82.76a48.78,48.78,0,0,0-6.14,7.61c-1,1.42-1.93,2.76-2.58,3.51L77,95.79c-2.94,3.3-6,6.71-8.13,11.28a30.13,30.13,0,0,0,2.5,30.45A28.38,28.38,0,0,0,98.17,149a39.3,39.3,0,0,0,4.94-1c4.33-1.07,5.71-1.18,7.09.12.68.63.74.75.72,2.9a19.53,19.53,0,0,0,.45,5,16,16,0,0,0,4.28,7,11.05,11.05,0,0,1,1.83,2.34c1.58,3.77.89,5.87-.62,10.46-.12.39-.26.79-.39,1.2-2.28,7.07.9,14.09,3.71,20.28.91,2,1.78,3.91,2.34,5.58,4.54,13.49,7.95,16.58,10.68,17.82a10.5,10.5,0,0,0,4.42.95c7.28,0,14.89-6.77,18.38-11.06a15.51,15.51,0,0,0,3.13-7.36,8.42,8.42,0,0,1,.65-2.26,13.21,13.21,0,0,1,1.67-2.13,17.76,17.76,0,0,0,4.13-6.87c.82-2.61,1.43-3.26,3.42-5.39l1.12-1.19c6.73-7.33,5-12.92,3.17-18.85-1.55-5,1.15-8.17,7.69-14.26a54.4,54.4,0,0,0,8-8.65c1-1.43,4-5.8,2.14-10.13s-6.48-5-10.21-5.52a16.67,16.67,0,0,1-4.41-1c-3.14-2-5-6.31-6.9-10.43-.37-.82-.73-1.63-1.1-2.43-.66-1.4-1.32-3.1-2-4.89-1.84-4.77-3.93-10.16-7.47-13.92-3.19-3.38-9.2-5-14.51-6.45-1.79-.48-3.47-.94-4.59-1.35a5,5,0,0,0-2.9-.18,13.15,13.15,0,0,0-5.39,2.23,6.28,6.28,0,0,0-1.8,2.43,59.63,59.63,0,0,1-6-3.63l-.1-.06a7.12,7.12,0,0,0-.45-4.87c-2.82-6-12.19-5.5-14-5.35-1,.08-2.37.13-3.78.18-2.21.07-4.65.16-7.06.43l.12-.34a12.91,12.91,0,0,1,12.13-8.54C116.16,72,124,77.66,129.42,79.87c10.7.77,19-1.89,29.7-1.12l7.05,6.73V89a5.19,5.19,0,0,0,.58,2.34l13.09,25.05a5.05,5.05,0,0,0,6.23,2.41l3.8-1.41a66.08,66.08,0,0,0,23.73-15.18,5.06,5.06,0,0,0,.63-6.37l-.27-.4h2.42a2.55,2.55,0,0,1,2,.9l6.23,7.29a2.47,2.47,0,0,1,.46.79l6.88,18.9a5,5,0,0,0,8.32,1.85l3.28-3.27a15.82,15.82,0,0,0,4.17-7.61c5.06,40.56-10.84,82.5-44.44,108.87a5.06,5.06,0,0,0,6.24,8,129.43,129.43,0,0,0,32-166.4ZM23.9,142.94l20.85,15.85a4.92,4.92,0,0,0,2.09.94l12.56,2.46a5.62,5.62,0,0,1,4.27,7.27,15.67,15.67,0,0,0,0,9.76l1.6,4.92a5.63,5.63,0,0,1-3.61,7.08l-5,1.63a5,5,0,0,0-3.4,3.86l-4,21.11a121,121,0,0,1-23-28.72A118.81,118.81,0,0,1,11.46,147ZM53.37,62.31l-5.94,6.37a5.16,5.16,0,0,0-.7.94L33.23,93.2l-12,8.57a5.06,5.06,0,0,0-1.23,7l4.49,6.59c-2.59.38-4.91.7-6.46.87l-.93-.87c-1.2-1.12-2.88-2.61-5.37-4.79A119.53,119.53,0,0,1,47.34,42.92a13.14,13.14,0,0,1,8.19,7.49A11.2,11.2,0,0,1,53.37,62.31Zm52.53,26c1.52-.05,3-.1,4.27-.22a12.53,12.53,0,0,1,2.15,0,5.07,5.07,0,0,0,2.33,6.29c.95.5,2.26,1.39,3.66,2.31,3.95,2.63,8.43,5.62,12.63,5.89a8.38,8.38,0,0,0,6.87-2.86,2.17,2.17,0,0,1,.22-.22,5.58,5.58,0,0,0,1.36-1.66l2.53.69c3,.81,8.56,2.32,9.8,3.63,2.18,2.31,3.89,6.72,5.39,10.62.76,2,1.48,3.82,2.28,5.54.35.74.69,1.5,1,2.27,2.33,5.2,5,11.1,10.58,14.77,2.55,1.66,5.66,2.14,8.42,2.56l1.1.17a49,49,0,0,1-6.42,6.72c-6.26,5.83-14,13.09-10.47,24.66,1.7,5.46,1.78,6-.95,9l-1,1.11a20.85,20.85,0,0,0-5.71,9.24,7.8,7.8,0,0,1-2.06,3.22,22.52,22.52,0,0,0-2.83,3.74,16.63,16.63,0,0,0-1.83,5.38,6.07,6.07,0,0,1-1.06,3,29.48,29.48,0,0,1-6.37,5.64c-2.37,1.51-3.76,1.72-4.24,1.69-.54-.58-2.5-3.11-5.45-11.87-.73-2.16-1.74-4.39-2.71-6.54-2.16-4.74-4.38-9.64-3.3-13,.13-.39.26-.78.38-1.16,1.73-5.27,3.36-10.25.34-17.5a18.15,18.15,0,0,0-3.68-5.24,9.44,9.44,0,0,1-1.93-2.57,10.9,10.9,0,0,1-.16-2.56c0-2.64,0-6.63-3.93-10.34-5.59-5.24-12.12-3.63-16.43-2.56A32.18,32.18,0,0,1,97,139c-7.1.83-13.45-1.85-17.4-7.36A20,20,0,0,1,78,111.39c1.53-3.25,3.86-5.86,6.54-8.88.59-.66,1.18-1.33,1.77-2,1-1.13,2.08-2.67,3.22-4.3,1.38-1.94,3.93-5.57,5-6.26C96.84,88.67,102.08,88.48,105.9,88.35Zm136.62,12.31a13.49,13.49,0,0,0-4.5,9.82v.12l-3.5-9.6a12.64,12.64,0,0,0-2.27-3.91L226,89.8a12.67,12.67,0,0,0-9.64-4.45h-7.63a7.32,7.32,0,0,0-6.09,11.39l.77,1.15a56,56,0,0,1-16.7,9.91l-10.44-20V83.32a5.08,5.08,0,0,0-1.56-3.66l-9.42-9a4.87,4.87,0,0,0-1.81-1.12l-8.73-.66c-1.92-.67-20.22,1.37-23.79.81s-12.22-9.41-17.37-10h-2.88A23.07,23.07,0,0,0,91.17,70.6L83.62,60l7.42-18,32.71-11.47A5.06,5.06,0,0,0,126,29l14.54-18.25a119.26,119.26,0,0,1,92.18,59.08,117.77,117.77,0,0,1,11.9,28.94Z" />
        <path class="cls-2"
          d="M53.37,62.31l-5.94,6.37a5.16,5.16,0,0,0-.7.94L33.23,93.2l-12,8.57a5.06,5.06,0,0,0-1.23,7l4.49,6.59c-2.59.38-4.91.7-6.46.87l-.93-.87c-1.2-1.12-2.88-2.61-5.37-4.79A119.53,119.53,0,0,1,47.34,42.92a13.14,13.14,0,0,1,8.19,7.49A11.2,11.2,0,0,1,53.37,62.31Z" />
        <path class="cls-2"
          d="M61.64,191.22l-5,1.63a5,5,0,0,0-3.4,3.86l-4,21.11a121,121,0,0,1-23-28.72A118.81,118.81,0,0,1,11.46,147l12.44-4.05,20.85,15.85a4.92,4.92,0,0,0,2.09.94l12.56,2.46a5.62,5.62,0,0,1,4.27,7.27,15.67,15.67,0,0,0,0,9.76l1.6,4.92A5.63,5.63,0,0,1,61.64,191.22Z" />
        <path class="cls-2"
          d="M180.52,138.17a49,49,0,0,1-6.42,6.72c-6.26,5.83-14,13.09-10.47,24.66,1.7,5.46,1.78,6-.95,9l-1,1.11a20.85,20.85,0,0,0-5.71,9.24,7.8,7.8,0,0,1-2.06,3.22,22.52,22.52,0,0,0-2.83,3.74,16.63,16.63,0,0,0-1.83,5.38,6.07,6.07,0,0,1-1.06,3,29.48,29.48,0,0,1-6.37,5.64c-2.37,1.51-3.76,1.72-4.24,1.69-.54-.58-2.5-3.11-5.45-11.87-.73-2.16-1.74-4.39-2.71-6.54-2.16-4.74-4.38-9.64-3.3-13,.13-.39.26-.78.38-1.16,1.73-5.27,3.36-10.25.34-17.5a18.15,18.15,0,0,0-3.68-5.24,9.44,9.44,0,0,1-1.93-2.57,10.9,10.9,0,0,1-.16-2.56c0-2.64,0-6.63-3.93-10.34-5.59-5.24-12.12-3.63-16.43-2.56A32.18,32.18,0,0,1,97,139c-7.1.83-13.45-1.85-17.4-7.36A20,20,0,0,1,78,111.39c1.53-3.25,3.86-5.86,6.54-8.88.59-.66,1.18-1.33,1.77-2,1-1.13,2.08-2.67,3.22-4.3,1.38-1.94,3.93-5.57,5-6.26,2.26-1.26,7.49-1.45,11.32-1.58,1.52-.05,3-.1,4.27-.22a12.53,12.53,0,0,1,2.15,0,5.07,5.07,0,0,0,2.33,6.29c.95.5,2.26,1.39,3.66,2.31,3.95,2.63,8.43,5.62,12.63,5.89a8.38,8.38,0,0,0,6.87-2.86,2.17,2.17,0,0,1,.22-.22,5.58,5.58,0,0,0,1.36-1.66l2.53.69c3,.81,8.56,2.32,9.8,3.63,2.18,2.31,3.89,6.72,5.39,10.62.76,2,1.48,3.82,2.28,5.54.35.74.69,1.5,1,2.27,2.33,5.2,5,11.1,10.58,14.77,2.55,1.66,5.66,2.14,8.42,2.56Z" />
        <path class="cls-2"
          d="M244.66,98.74l-2.14,1.91a13.49,13.49,0,0,0-4.5,9.82v.12l-3.5-9.6a12.64,12.64,0,0,0-2.27-3.91L226,89.8a12.67,12.67,0,0,0-9.64-4.45h-7.63a7.32,7.32,0,0,0-6.09,11.39l.77,1.15a56,56,0,0,1-16.7,9.91l-10.44-20V83.32a5.08,5.08,0,0,0-1.56-3.66l-9.42-9a4.87,4.87,0,0,0-1.81-1.12l-8.73-.66c-1.92-.67-20.22,1.37-23.79.81s-12.22-9.41-17.37-10h-2.88A23.07,23.07,0,0,0,91.17,70.6L83.62,60l7.42-18,32.71-11.47A5.06,5.06,0,0,0,126,29l14.54-18.25a119.26,119.26,0,0,1,92.18,59.08A117.77,117.77,0,0,1,244.66,98.74Z" />
        <path class="cls-1"
          d="M207.29,174l-2.43-9.17a5.06,5.06,0,0,0-9.33-1.11c-.56,1-1,2.11-1.53,3.15a21.33,21.33,0,0,1-2.53,4.59,11,11,0,0,1-3,1.76c-2.91,1.41-6.9,3.33-8.42,8.18a14.84,14.84,0,0,0-.34,7.13,4.61,4.61,0,0,1-.12,3l-.05.11c-1.61,3.78-4.61,10.8-.41,16.79,3,4.27,6.15,5.36,8.59,5.36a9.09,9.09,0,0,0,1.35-.1c5.16-.84,9-6.21,12.2-16.88l5.94-20A5,5,0,0,0,207.29,174ZM191.61,194c-1.61,5.44-3,8-3.87,9.11l-.31-.41c-1-1.38.48-4.77,1.43-7l.05-.12a14.23,14.23,0,0,0,.83-8.42,5.32,5.32,0,0,1,0-2.62c.2-.64,1.39-1.24,3.17-2.11.79-.38,1.67-.8,2.54-1.31Z" />
        <path class="cls-2"
          d="M195.43,181.06,191.61,194c-1.61,5.44-3,8-3.87,9.11l-.31-.41c-1-1.38.48-4.77,1.43-7l.05-.12a14.23,14.23,0,0,0,.83-8.42,5.32,5.32,0,0,1,0-2.62c.2-.64,1.39-1.24,3.17-2.11C193.69,182,194.56,181.56,195.43,181.06Z" />
      </g>
    </g>
  </g>
</svg>