<svg width="375" height="376" viewBox="0 0 375 376" fill="none" xmlns="http://www.w3.org/2000/svg">
  <g clip-path="url(#clip0_466_1135)">
  <path d="M296.874 187.616C296.88 204.165 293.127 220.499 285.899 235.384C278.671 250.269 268.157 263.315 255.151 273.538C244.418 281.977 237.333 293.085 235.217 304.961C234.977 304.836 234.705 304.782 234.435 304.808H140.624C140.254 304.782 139.884 304.834 139.535 304.961C137.612 293.059 131.243 282.332 121.718 274.95C105.028 262.391 92.2766 245.317 84.9681 225.743C77.6595 206.169 76.0988 184.911 80.4701 164.479C89.057 123.052 122.653 89.2973 164.069 80.6744C180.046 77.1625 196.607 77.2823 212.532 81.0251C228.457 84.7678 243.34 92.0381 256.083 102.3C268.827 112.562 279.108 125.555 286.167 140.32C293.227 155.086 296.886 171.248 296.874 187.616V187.616Z" fill="#FFB703"/>
  <path d="M235.158 305.038C234.658 307.72 234.396 310.441 234.376 313.17V347.876C234.339 355.126 231.443 362.067 226.317 367.191C221.191 372.314 214.25 375.205 207.005 375.233H167.966C154.84 375.233 140.626 365.229 140.626 343.334V315.717C140.659 312.143 140.293 308.577 139.537 305.084C139.885 304.957 140.256 304.905 140.626 304.93H234.376C234.646 304.905 234.917 304.959 235.158 305.084V305.038Z" fill="#8ECAE6" stroke="#8ECAE6" stroke-miterlimit="10"/>
  <path d="M222.66 328.344H152.34C149.233 328.344 146.253 327.109 144.056 324.911C141.859 322.712 140.625 319.731 140.625 316.622C140.625 313.513 141.859 310.531 144.056 308.333C146.253 306.135 149.233 304.9 152.34 304.9H222.645C225.752 304.9 228.731 306.135 230.928 308.333C233.125 310.531 234.36 313.513 234.36 316.622C234.36 319.731 233.125 322.712 230.928 324.911C228.731 327.109 225.752 328.344 222.645 328.344H222.66Z" fill="#023047"/>
  <path d="M187.5 54.054C184.394 54.05 181.417 52.8136 179.221 50.6162C177.025 48.4187 175.789 45.4395 175.785 42.3318V11.7222C175.785 10.1828 176.088 8.6585 176.677 7.2363C177.266 5.8141 178.129 4.52186 179.216 3.43335C180.304 2.34484 181.596 1.48139 183.017 0.892299C184.438 0.303203 185.962 0 187.5 0C189.039 0 190.562 0.303203 191.983 0.892299C193.405 1.48139 194.696 2.34484 195.784 3.43335C196.872 4.52186 197.735 5.8141 198.323 7.2363C198.912 8.6585 199.215 10.1828 199.215 11.7222V42.3165C199.215 45.4268 197.981 48.41 195.785 50.6108C193.588 52.8115 190.608 54.05 187.5 54.054V54.054Z" fill="#023047"/>
  <path d="M290.174 96.6621C287.858 96.6564 285.596 95.9649 283.672 94.6748C281.749 93.3847 280.249 91.5536 279.364 89.4124C278.478 87.2712 278.246 84.9156 278.696 82.6425C279.147 80.3695 280.259 78.2806 281.894 76.6392L303.515 55.0053C304.603 53.9163 305.895 53.0524 307.317 52.463C308.739 51.8736 310.263 51.5703 311.802 51.5703C313.342 51.5703 314.866 51.8736 316.288 52.463C317.71 53.0524 319.002 53.9163 320.09 55.0053C321.179 56.0944 322.042 57.3873 322.631 58.8102C323.22 60.2331 323.523 61.7582 323.523 63.2983C323.523 64.8385 323.22 66.3635 322.631 67.7864C322.042 69.2094 321.179 70.5022 320.09 71.5913L298.47 93.2252C296.268 95.4234 293.285 96.6592 290.174 96.6621V96.6621Z" fill="#023047"/>
  <path d="M363.285 199.339H332.74C329.633 199.339 326.654 198.104 324.457 195.905C322.26 193.707 321.025 190.725 321.025 187.616C321.025 184.507 322.26 181.526 324.457 179.328C326.654 177.129 329.633 175.894 332.74 175.894H363.316C364.854 175.894 366.377 176.197 367.799 176.787C369.22 177.376 370.512 178.239 371.599 179.328C372.687 180.416 373.55 181.708 374.139 183.131C374.728 184.553 375.031 186.077 375.031 187.616C375.031 189.156 374.728 190.68 374.139 192.102C373.55 193.525 372.687 194.817 371.599 195.905C370.512 196.994 369.22 197.857 367.799 198.446C366.377 199.035 364.854 199.339 363.316 199.339H363.285Z" fill="#023047"/>
  <path d="M311.794 323.741C310.256 323.745 308.731 323.444 307.31 322.854C305.889 322.264 304.598 321.397 303.514 320.304L281.894 298.67C279.696 296.471 278.461 293.488 278.461 290.377C278.461 287.267 279.696 284.284 281.894 282.084C284.092 279.885 287.073 278.649 290.182 278.649C293.29 278.649 296.271 279.885 298.47 282.084L320.09 303.718C321.726 305.361 322.839 307.451 323.288 309.725C323.738 312 323.504 314.357 322.617 316.499C321.73 318.64 320.228 320.471 318.302 321.76C316.376 323.049 314.112 323.738 311.794 323.741V323.741Z" fill="#023047"/>
  <path d="M63.2055 323.741C60.8896 323.735 58.6273 323.044 56.7035 321.754C54.7798 320.464 53.2807 318.633 52.3952 316.491C51.5097 314.35 51.2775 311.995 51.7277 309.722C52.178 307.449 53.2906 305.36 54.9253 303.718L76.5458 282.084C78.7438 279.885 81.7251 278.649 84.8336 278.649C87.9422 278.649 90.9234 279.885 93.1215 282.084C95.3195 284.284 96.5544 287.267 96.5544 290.377C96.5544 293.488 95.3195 296.471 93.1215 298.67L71.501 320.304C70.4131 321.396 69.12 322.262 67.6963 322.852C66.2726 323.442 64.7464 323.744 63.2055 323.741Z" fill="#023047"/>
  <path d="M42.2902 199.339H11.7149C10.1765 199.339 8.65313 199.035 7.23181 198.446C5.81049 197.857 4.51905 196.994 3.43122 195.905C2.34339 194.817 1.48047 193.525 0.891745 192.102C0.303015 190.68 0 189.156 0 187.616C0 186.077 0.303015 184.553 0.891745 183.131C1.48047 181.708 2.34339 180.416 3.43122 179.328C4.51905 178.239 5.81049 177.376 7.23181 176.787C8.65313 176.197 10.1765 175.894 11.7149 175.894H42.2902C43.8287 175.894 45.352 176.197 46.7733 176.787C48.1947 177.376 49.4861 178.239 50.5739 179.328C51.6618 180.416 52.5247 181.708 53.1134 183.131C53.7021 184.553 54.0052 186.077 54.0052 187.616C54.0052 189.156 53.7021 190.68 53.1134 192.102C52.5247 193.525 51.6618 194.817 50.5739 195.905C49.4861 196.994 48.1947 197.857 46.7733 198.446C45.352 199.035 43.8287 199.339 42.2902 199.339V199.339Z" fill="#023047"/>
  <path d="M84.826 96.662C83.2872 96.6662 81.7628 96.3645 80.3414 95.7745C78.92 95.1845 77.6299 94.318 76.5458 93.2252L54.9253 71.5913C52.7191 69.3918 51.4765 66.4055 51.4707 63.2893C51.465 60.1731 52.6966 57.1822 54.8947 54.9746C57.0928 52.767 60.0772 51.5236 63.1915 51.5178C66.3058 51.5121 69.2948 52.7445 71.501 54.9439L93.1215 76.5778C94.7783 78.2169 95.9097 80.3125 96.3717 82.5974C96.8336 84.8824 96.6051 87.2533 95.7152 89.4078C94.8253 91.5623 93.3143 93.4029 91.375 94.6949C89.4357 95.9868 87.1558 96.6716 84.826 96.662V96.662Z" fill="#023047"/>
  <path d="M246.091 195.426C242.985 195.422 240.008 194.186 237.811 191.988C235.615 189.791 234.38 186.812 234.376 183.704C234.376 172.31 229.852 161.383 221.801 153.326C213.749 145.269 202.828 140.743 191.441 140.743C188.334 140.743 185.355 139.508 183.158 137.31C180.961 135.111 179.727 132.13 179.727 129.021C179.727 125.912 180.961 122.93 183.158 120.732C185.355 118.534 188.334 117.299 191.441 117.299C209.048 117.319 225.928 124.327 238.378 136.784C250.828 149.242 257.831 166.132 257.852 183.75C257.835 186.858 256.588 189.832 254.383 192.021C252.179 194.21 249.196 195.434 246.091 195.426V195.426Z" fill="#023047"/>
  <path d="M207.005 375.233H167.965C154.794 375.233 140.625 365.229 140.625 343.273V315.655C140.625 299.069 133.557 283.834 121.734 274.934C87.5862 249.219 71.7925 206.903 80.5021 164.464C84.199 147.285 91.9744 131.249 103.171 117.711C114.368 104.173 128.658 93.5315 144.832 86.6852C161.006 79.8389 178.589 76.9892 196.096 78.3769C213.603 79.7647 230.519 85.3491 245.414 94.6583C260.309 103.967 272.746 116.728 281.673 131.861C290.6 146.994 295.755 164.055 296.702 181.602C297.65 199.149 294.362 216.666 287.117 232.674C279.872 248.681 268.882 262.708 255.076 273.569C241.919 283.926 234.375 298.333 234.375 313.108V347.861C234.371 355.122 231.486 362.084 226.353 367.217C221.221 372.349 214.261 375.233 207.005 375.233V375.233ZM187.286 101.664C181.103 101.674 174.937 102.317 168.885 103.582C152.832 107.116 138.13 115.186 126.525 126.834C114.92 138.482 106.9 153.217 103.417 169.291C99.9342 185.365 101.135 202.102 106.877 217.513C112.619 232.924 122.661 246.362 135.811 256.231C153.49 269.534 164.071 291.766 164.071 315.701V343.319C164.071 344.746 164.255 351.819 167.981 351.819H207.005C207.518 351.819 208.027 351.718 208.501 351.521C208.975 351.325 209.407 351.037 209.77 350.673C210.133 350.31 210.421 349.879 210.617 349.404C210.814 348.929 210.915 348.42 210.915 347.907V313.108C210.915 291.076 221.725 269.963 240.57 255.126C254.608 244.068 264.849 228.903 269.866 211.746C274.883 194.588 274.427 176.292 268.561 159.406C262.695 142.519 251.712 127.885 237.14 117.54C222.569 107.196 205.136 101.657 187.27 101.695L187.286 101.664Z" fill="#023047"/>
  </g>
  <defs>
  <clipPath id="clip0_466_1135">
  <rect width="375" height="376" fill="white"/>
  </clipPath>
  </defs>
  </svg>
  