<svg xmlns="http://www.w3.org/2000/svg" viewBox="0 0 244.56 245.06">
  <defs>
    <style>
      .cls-1 {
        fill: #ff8451;
      }

      .cls-2 {
        fill: #cdfffc;
        stroke: #cdfffc;
        stroke-miterlimit: 10;
      }

      .cls-3 {
        fill: #0b2f46;
      }
    </style>
  </defs>
  <title>Ativo 2</title>
  <g id="Camada_2" data-name="Camada 2">
    <g id="Layer_1" data-name="Layer 1">
      <g id="Pitch">
        <path class="cls-1"
          d="M193.61,122.28a71.18,71.18,0,0,1-27.21,56c-7,5.5-11.62,12.74-13,20.48a.92.92,0,0,0-.51-.1H91.71a1.73,1.73,0,0,0-.71.1,31,31,0,0,0-11.62-19.56,71.39,71.39,0,0,1-26.9-72c5.6-27,27.51-49,54.52-54.62a71.31,71.31,0,0,1,86.61,69.7Z" />
        <path class="cls-2"
          d="M153.36,198.81a30.13,30.13,0,0,0-.51,5.3v22.62A17.92,17.92,0,0,1,135,244.56H109.54c-8.56,0-17.83-6.52-17.83-20.79v-18a31.37,31.37,0,0,0-.71-6.93,1.73,1.73,0,0,1,.71-.1h61.14a.92.92,0,0,1,.51.1Z" />
        <path class="cls-3" d="M145.21,214H99.35a7.64,7.64,0,1,1,0-15.28h45.85a7.64,7.64,0,0,1,0,15.28Z" />
        <path class="cls-3"
          d="M122.28,35.23a7.65,7.65,0,0,1-7.64-7.64V7.64a7.64,7.64,0,1,1,15.28,0V27.58A7.65,7.65,0,0,1,122.28,35.23Z" />
        <path class="cls-3"
          d="M189.24,63a7.65,7.65,0,0,1-5.4-13.05l14.1-14.1a7.64,7.64,0,0,1,10.81,10.81l-14.1,14.1A7.67,7.67,0,0,1,189.24,63Z" />
        <path class="cls-3" d="M236.92,129.92H217a7.64,7.64,0,0,1,0-15.28h19.94a7.64,7.64,0,1,1,0,15.28Z" />
        <path class="cls-3"
          d="M203.34,211a7.58,7.58,0,0,1-5.4-2.24l-14.1-14.1a7.64,7.64,0,0,1,10.81-10.81l14.1,14.1A7.65,7.65,0,0,1,203.34,211Z" />
        <path class="cls-3"
          d="M41.22,211a7.65,7.65,0,0,1-5.4-13.05l14.1-14.1a7.64,7.64,0,1,1,10.81,10.81l-14.1,14.1A7.62,7.62,0,0,1,41.22,211Z" />
        <path class="cls-3" d="M27.58,129.92H7.64a7.64,7.64,0,1,1,0-15.28H27.58a7.64,7.64,0,1,1,0,15.28Z" />
        <path class="cls-3"
          d="M55.32,63a7.58,7.58,0,0,1-5.4-2.24l-14.1-14.1A7.64,7.64,0,0,1,46.63,35.81l14.1,14.1A7.65,7.65,0,0,1,55.32,63Z" />
        <path class="cls-3"
          d="M160.49,127.37a7.65,7.65,0,0,1-7.64-7.64,28,28,0,0,0-28-28,7.64,7.64,0,0,1,0-15.28,43.36,43.36,0,0,1,43.31,43.31A7.65,7.65,0,0,1,160.49,127.37Z" />
        <path class="cls-3"
          d="M135,244.56H109.54c-8.59,0-17.83-6.52-17.83-20.83v-18c0-10.81-4.61-20.74-12.32-26.54-22.27-16.76-32.57-44.34-26.89-72A71.35,71.35,0,1,1,166.35,178.3c-8.58,6.75-13.5,16.14-13.5,25.77v22.65A17.85,17.85,0,0,1,135,244.56ZM122.14,66.26a59.19,59.19,0,0,0-12,1.25A56,56,0,0,0,88.57,167C100.1,175.67,107,190.16,107,205.76v18c0,.93.12,5.54,2.55,5.54H135a2.55,2.55,0,0,0,2.55-2.55V204.07c0-14.36,7.05-28.12,19.34-37.79a56,56,0,0,0-34.76-100Z" />
      </g>
    </g>
  </g>
</svg>