<svg xmlns="http://www.w3.org/2000/svg" width="252.916" height="187.616" viewBox="0 0 252.916 187.616">
    <defs>
        <style>.a{fill:#361784;}.b{fill:none;stroke:#2da6b0;stroke-miterlimit:10;stroke-width:5px;}.c{fill:#fff;font-size:50px;font-family:Roboto-Black, Roboto;font-weight:800;}.d{fill:#2da6b0;stroke:#fff;stroke-width:6px;}</style>
    </defs>
    <g transform="translate(-5290 -395)">
        <g transform="translate(5288.5 393.5)">
            <path class="a" d="M926.8,497.813v32.973a19.1,19.1,0,0,1-5.757,13.662,19.932,19.932,0,0,1-13.958,5.67H873.4a19.511,19.511,0,0,1-19.716-19.3v-39.3a8.156,8.156,0,0,0-8.241-8.068H805.036a19.5,19.5,0,0,1-19.716-19.3V431.181a19.511,19.511,0,0,1,19.716-19.3h33.682a19.512,19.512,0,0,1,19.724,19.3v39.264a7.975,7.975,0,0,0,2.411,5.707,8.324,8.324,0,0,0,5.83,2.361H907.09a19.511,19.511,0,0,1,19.708,19.3Z" transform="translate(-783.82 -410.38)" />
            <path class="b" d="M1072.736,550.229v38.648c-.008,12.486-9.873,22.6-22.04,22.6h-37.665c-12.176,0-22.047-10.13-22.047-22.626v-46a9.581,9.581,0,0,0-2.7-6.7,9.092,9.092,0,0,0-6.537-2.764h-45.16c-12.178,0-22.051-10.129-22.047-22.626V472.106c0-12.5,9.871-22.626,22.047-22.626h37.665c12.176,0,22.047,10.13,22.047,22.626v46.028a9.574,9.574,0,0,0,2.7,6.687,9.086,9.086,0,0,0,6.516,2.767H1050.7C1062.877,527.588,1072.748,537.728,1072.736,550.229Z" transform="translate(-820.82 -424.861)" />
        </g>
        <g transform="translate(5170 302)">
            <text class="c" transform="translate(139.279 185.054)">
                <tspan x="0" y="0">Speakers</tspan>
            </text>
            <path class="d" d="M0,0H100" transform="translate(194.281 209.419)" />
        </g>
    </g>
</svg>