<?xml version="1.0" encoding="utf-8"?>
<!-- Generator: Adobe Illustrator 23.1.1, SVG Export Plug-In . SVG Version: 6.00 Build 0)  -->
<svg version="1.1" id="Camada_1" xmlns="http://www.w3.org/2000/svg" xmlns:xlink="http://www.w3.org/1999/xlink" x="0px" y="0px"
	 viewBox="0 0 709.7 704.1" style="enable-background:new 0 0 709.7 704.1;" xml:space="preserve">
<style type="text/css">
	.st0{fill:#FFB703;}
	.st1{fill:#EE6D19;}
	.st2{fill:#023047;}
</style>
<path class="st0" d="M665.8,0H0v665.8h665.8V0z"/>
<path class="st1" d="M43.9,0H0v665.8h43.9V0z"/>
<path class="st1" d="M665.8,0.1H0V44h665.8V0.1z"/>
<path class="st2" d="M709.7,0.1h-43.9v704h43.9V0.1z"/>
<path class="st2" d="M665.8,660.2H0v43.9h665.8V660.2z"/>
<path class="st2" d="M131.9,87.7h-44v44h44V87.7z"/>
<path class="st2" d="M131.9,572.2h-44v44h44V572.2z"/>
<path class="st2" d="M621.8,572.2h-44v44h44V572.2z"/>
<path class="st2" d="M43.9,0h-44v44h44V0z"/>
<path class="st2" d="M621.8,87.2h-44v44h44V87.2z"/>
<path class="st1" d="M220.6,175.7h-44v44h44V175.7z"/>
<path class="st1" d="M264.6,175.7h-44v44h44V175.7z"/>
<path class="st1" d="M220.6,219.8h-44v44h44V219.8z"/>
<path class="st0" d="M264.6,219.8h-44v44h44V219.8z"/>
<path class="st1" d="M220.6,263.8h-44v44h44V263.8z"/>
<path class="st0" d="M264.6,263.8h-44v44h44V263.8z"/>
<path class="st1" d="M264.6,131.7h-44v44h44V131.7z"/>
<path class="st1" d="M308.6,131.7h-44v44h44V131.7z"/>
<path class="st1" d="M352.6,131.7h-44v44h44V131.7z"/>
<path class="st1" d="M396.6,131.7h-44v44h44V131.7z"/>
<path class="st1" d="M440.7,131.7h-44v44h44V131.7z"/>
<path class="st0" d="M440.7,175.7h-44v44h44V175.7z"/>
<path class="st0" d="M484.7,175.7h-44v44h44V175.7z"/>
<path class="st1" d="M440.7,219.8h-44v44h44V219.8z"/>
<path class="st0" d="M484.7,219.8h-44v44h44V219.8z"/>
<path class="st1" d="M440.7,263.8h-44v44h44V263.8z"/>
<path class="st0" d="M484.7,263.8h-44v44h44V263.8z"/>
<path class="st1" d="M440.7,307.8h-44v44h44V307.8z"/>
<path class="st1" d="M396.6,307.8h-44v44h44V307.8z"/>
<path class="st1" d="M396.6,351.9h-44v44h44V351.9z"/>
<path class="st1" d="M352.6,351.9h-44v44h44V351.9z"/>
<path class="st1" d="M352.6,395.9h-44v44h44V395.9z"/>
<path class="st0" d="M396.6,395.9h-44v44h44V395.9z"/>
<path class="st1" d="M396.6,484.1h-44v44h44V484.1z"/>
<path class="st1" d="M352.6,484h-44v44h44V484z"/>
<path class="st0" d="M396.6,528.2h-44v44h44V528.2z"/>
<path class="st1" d="M352.6,528.1h-44v44h44V528.1z"/>
<path class="st0" d="M484.7,307.8h-44v44h44V307.8z"/>
<path class="st1" d="M264.6,219.7h-44v44h44V219.7z"/>
<path class="st2" d="M308.6,219.7h-44v44h44V219.7z"/>
<path class="st1" d="M264.6,263.7h-44v44h44V263.7z"/>
<path class="st2" d="M308.6,263.7h-44v44h44V263.7z"/>
<path class="st2" d="M264.6,307.8h-44v44h44V307.8z"/>
<path class="st2" d="M308.6,307.8h-44v44h44V307.8z"/>
<path class="st2" d="M308.6,175.7h-44v44h44V175.7z"/>
<path class="st2" d="M352.6,175.7h-44v44h44V175.7z"/>
<path class="st2" d="M396.6,175.7h-44v44h44V175.7z"/>
<path class="st1" d="M440.7,175.7h-44v44h44V175.7z"/>
<path class="st1" d="M484.7,175.7h-44v44h44V175.7z"/>
<path class="st1" d="M484.7,219.7h-44v44h44V219.7z"/>
<path class="st2" d="M528.7,219.7h-44v44h44V219.7z"/>
<path class="st1" d="M484.7,263.7h-44v44h44V263.7z"/>
<path class="st2" d="M528.7,263.7h-44v44h44V263.7z"/>
<path class="st1" d="M484.7,307.8h-44v44h44V307.8z"/>
<path class="st2" d="M528.7,307.8h-44v44h44V307.8z"/>
<path class="st2" d="M484.7,351.8h-44v44h44V351.8z"/>
<path class="st2" d="M440.7,351.8h-44v44h44V351.8z"/>
<path class="st2" d="M440.7,395.9h-44v44h44V395.9z"/>
<path class="st1" d="M396.6,395.9h-44v44h44V395.9z"/>
<path class="st2" d="M396.6,439.9h-44v44h44V439.9z"/>
<path class="st2" d="M440.7,439.9h-44v44h44V439.9z"/>
<path class="st2" d="M440.7,528.1h-44v44h44V528.1z"/>
<path class="st1" d="M396.6,528h-44v44h44V528z"/>
<path class="st2" d="M440.7,572.2h-44v44h44V572.2z"/>
<path class="st2" d="M396.6,572.1h-44v44h44V572.1z"/>
<path class="st2" d="M528.7,351.8h-44v44h44V351.8z"/>
</svg>
