<svg id="Layer_1" data-name="Layer 1" xmlns="http://www.w3.org/2000/svg" viewBox="0 0 400 400">
    <defs>
        <style>.cls-1{fill:#fff;}</style>
    </defs>
    <g id="Group_143" data-name="Group 143">
        <path class="cls-1" d="M511.65,104.19H197.35A42.87,42.87,0,0,0,154.5,147v314.3a42.87,42.87,0,0,0,42.85,42.85h314.3a42.87,42.87,0,0,0,42.85-42.85V147A42.87,42.87,0,0,0,511.65,104.19ZM498,245H430.21c-5.52-35.69-16.06-67.62-31.36-88.82A155.89,155.89,0,0,1,498,245Zm-83.3,60.22a393,393,0,0,1-2.07,40.14H296.36a390.32,390.32,0,0,1,0-80.29H412.58A393,393,0,0,1,414.65,305.26ZM354.5,149.7c25,0,46.42,39.32,55.51,95.34H299C308.08,189,329.54,149.7,354.5,149.7Zm-44.44,6.52h0c-15.3,21.2-25.84,53.13-31.3,88.82H211.05A155.82,155.82,0,0,1,310.06,156.22ZM204.34,265.11h72c-1.32,13.18-2.07,26.66-2.07,40.15s.74,27,2,40.14H204.34A152.13,152.13,0,0,1,204.34,265.11Zm6.71,100.36h67.74c5.52,35.69,16.06,67.62,31.36,88.82A155.89,155.89,0,0,1,211.05,365.47ZM354.5,460.81c-25,0-46.42-39.32-55.51-95.34H410C400.92,421.49,379.46,460.81,354.5,460.81Zm44.44-6.52c15.28-21.2,25.78-53.13,31.33-88.82h67.78A156.06,156.06,0,0,1,398.94,454.29ZM504.61,345.4H432.72c1.32-13.18,2.07-26.67,2.07-40.14s-.75-27-2.07-40.15h71.95A156.87,156.87,0,0,1,510,305.26,154.2,154.2,0,0,1,504.61,345.4Z" transform="translate(-154.5 -104.19)" />
    </g>
</svg>
